<svg xmlns="http://www.w3.org/2000/svg" xmlns:xlink="http://www.w3.org/1999/xlink" width="200" zoomAndPan="magnify" viewBox="0 0 150 149.999998" height="200" preserveAspectRatio="xMidYMid meet" version="1.0"><defs><filter x="0%" y="0%" width="100%" height="100%" id="af90467a1d"><feColorMatrix values="0 0 0 0 1 0 0 0 0 1 0 0 0 0 1 0 0 0 1 0" color-interpolation-filters="sRGB"/></filter><g/><clipPath id="92b11b8af0"><path d="M 63 56.855469 L 75 56.855469 L 75 70 L 63 70 Z M 63 56.855469 " clip-rule="nonzero"/></clipPath><clipPath id="e48cb45147"><path d="M 78 56.855469 L 90 56.855469 L 90 70 L 78 70 Z M 78 56.855469 " clip-rule="nonzero"/></clipPath><clipPath id="1336d62b00"><path d="M 82 56.855469 L 85 56.855469 L 85 58 L 82 58 Z M 82 56.855469 " clip-rule="nonzero"/></clipPath><clipPath id="de9cbd02c6"><path d="M 93 56.855469 L 105 56.855469 L 105 70 L 93 70 Z M 93 56.855469 " clip-rule="nonzero"/></clipPath><clipPath id="5036e961b3"><path d="M 35 56.855469 L 42 56.855469 L 42 67 L 35 67 Z M 35 56.855469 " clip-rule="nonzero"/></clipPath><mask id="fea5baa62d"><g filter="url(#af90467a1d)"><rect x="-15" width="180" fill="#000000" y="-15" height="179.999997" fill-opacity="0.7"/></g></mask><clipPath id="a128383fd7"><path d="M 0.761719 1 L 7 1 L 7 10.960938 L 0.761719 10.960938 Z M 0.761719 1 " clip-rule="nonzero"/></clipPath><clipPath id="bb7f56fcbb"><rect x="0" width="7" y="0" height="11"/></clipPath><clipPath id="bdeae9901a"><path d="M 33 56.855469 L 45 56.855469 L 45 70 L 33 70 Z M 33 56.855469 " clip-rule="nonzero"/></clipPath><mask id="8f07aedc72"><g filter="url(#af90467a1d)"><rect x="-15" width="180" fill="#000000" y="-15" height="179.999997" fill-opacity="0.7"/></g></mask><clipPath id="500e077c35"><path d="M 1 0.320312 L 7 0.320312 L 7 8.960938 L 1 8.960938 Z M 1 0.320312 " clip-rule="nonzero"/></clipPath><clipPath id="dcabf19bba"><rect x="0" width="8" y="0" height="9"/></clipPath><clipPath id="8f84765615"><path d="M 48 56.855469 L 60 56.855469 L 60 70 L 48 70 Z M 48 56.855469 " clip-rule="nonzero"/></clipPath><clipPath id="c615f3e11a"><path d="M 109 56.855469 L 120 56.855469 L 120 70 L 109 70 Z M 109 56.855469 " clip-rule="nonzero"/></clipPath><mask id="25ac330a24"><g filter="url(#af90467a1d)"><rect x="-15" width="180" fill="#000000" y="-15" height="179.999997" fill-opacity="0.3"/></g></mask><clipPath id="a9521245a5"><path d="M 1 1 L 8 1 L 8 2.558594 L 1 2.558594 Z M 1 1 " clip-rule="nonzero"/></clipPath><clipPath id="8dd238e786"><rect x="0" width="8" y="0" height="3"/></clipPath><clipPath id="3a994c8363"><path d="M 0.75 75 L 5 75 L 5 79 L 0.75 79 Z M 0.75 75 " clip-rule="nonzero"/></clipPath><clipPath id="8d89d0fcb6"><path d="M 3 56.855469 L 13 56.855469 L 13 70 L 3 70 Z M 3 56.855469 " clip-rule="nonzero"/></clipPath><clipPath id="ae61f9a37c"><path d="M 3 56.855469 L 12 56.855469 L 12 70 L 3 70 Z M 3 56.855469 " clip-rule="nonzero"/></clipPath><clipPath id="c915bc2cc4"><path d="M 3 56.855469 L 10 56.855469 L 10 70 L 3 70 Z M 3 56.855469 " clip-rule="nonzero"/></clipPath><clipPath id="8e713789a5"><path d="M 17 72 L 29 72 L 29 80.855469 L 17 80.855469 Z M 17 72 " clip-rule="nonzero"/></clipPath></defs><path stroke-linecap="butt" transform="matrix(0.761288, 0, 0, 0.761288, 0.750001, 56.910464)" fill="none" stroke-linejoin="miter" d="M 29.780957 11.498411 L 27.85166 11.498411 C 26.440605 11.498411 25.291237 10.359305 25.291237 8.937988 C 25.291237 7.521802 26.430343 6.377564 27.85166 6.377564 L 29.780957 6.377564 C 31.192012 6.377564 32.341381 7.521802 32.341381 8.937988 C 32.341381 10.359305 31.202275 11.498411 29.780957 11.498411 Z M 29.780957 11.498411 " stroke="#003a4a" stroke-width="0.25" stroke-opacity="1" stroke-miterlimit="10"/><path fill="#245117" d="M 22.691406 60.738281 C 22.820312 61.433594 22.820312 62.125 22.691406 62.816406 C 22.5625 62.125 22.5625 61.433594 22.691406 60.738281 " fill-opacity="1" fill-rule="nonzero"/><path fill="#245117" d="M 22.691406 64.628906 C 22.820312 65.324219 22.820312 66.015625 22.691406 66.707031 C 22.5625 66.015625 22.5625 65.324219 22.691406 64.628906 " fill-opacity="1" fill-rule="nonzero"/><path fill="#245117" d="M 26.40625 63.722656 C 25.710938 63.851562 25.019531 63.851562 24.328125 63.722656 C 25.019531 63.59375 25.710938 63.59375 26.40625 63.722656 " fill-opacity="1" fill-rule="nonzero"/><path fill="#245117" d="M 21.046875 63.722656 C 20.351562 63.851562 19.660156 63.851562 18.96875 63.722656 C 19.660156 63.59375 20.351562 63.59375 21.046875 63.722656 " fill-opacity="1" fill-rule="nonzero"/><g clip-path="url(#92b11b8af0)"><path stroke-linecap="butt" transform="matrix(0.761288, 0, 0, 0.761288, 0.750001, 56.910464)" fill="none" stroke-linejoin="miter" d="M 91.590301 4.427743 C 90.779586 3.878714 90.451195 3.801747 90.271606 3.437439 C 90.020181 2.949983 91.338877 2.411217 91.441499 1.759566 C 91.487679 1.482486 91.369663 0.959113 91.220861 0.759 C 91.072059 0.558886 90.502506 0.271544 90.348572 0.271544 L 88.557815 0.271544 C 88.409013 0.271544 87.829198 0.558886 87.690658 0.759 C 87.541856 0.969375 87.418709 1.482486 87.47002 1.759566 C 87.577773 2.411217 88.891337 2.939721 88.639913 3.437439 C 88.460324 3.801747 88.142195 3.878714 87.321218 4.427743 C 86.510503 4.981903 86.069227 6.028649 86.069227 6.028649 L 86.069227 12.04744 C 86.069227 12.498978 86.428405 12.858155 86.879942 12.858155 L 92.021314 12.858155 C 92.467721 12.858155 92.832029 12.498978 92.832029 12.04744 L 92.832029 6.028649 C 92.832029 6.028649 92.401016 4.981903 91.580039 4.427743 Z M 91.590301 4.427743 " stroke="#003a4a" stroke-width="0.25" stroke-opacity="1" stroke-miterlimit="10"/></g><g fill="#003a4a" fill-opacity="1"><g transform="translate(68.22292, 63.145414)"><g><path d="M 0.890625 -0.65625 C 0.890625 -0.539062 0.851562 -0.457031 0.78125 -0.40625 C 0.71875 -0.351562 0.625 -0.328125 0.5 -0.328125 C 0.445312 -0.328125 0.394531 -0.332031 0.34375 -0.34375 L 0.28125 -0.203125 C 0.28125 -0.191406 0.289062 -0.179688 0.3125 -0.171875 C 0.34375 -0.160156 0.378906 -0.15625 0.421875 -0.15625 L 0.703125 -0.15625 C 0.804688 -0.15625 0.878906 -0.128906 0.921875 -0.078125 C 0.972656 -0.0351562 1 0.0195312 1 0.09375 C 1 0.164062 0.976562 0.226562 0.9375 0.28125 C 0.90625 0.332031 0.847656 0.375 0.765625 0.40625 C 0.691406 0.4375 0.597656 0.453125 0.484375 0.453125 C 0.359375 0.453125 0.257812 0.429688 0.1875 0.390625 C 0.125 0.347656 0.09375 0.289062 0.09375 0.21875 C 0.09375 0.1875 0.101562 0.148438 0.125 0.109375 C 0.144531 0.078125 0.191406 0.0351562 0.265625 -0.015625 C 0.222656 -0.0234375 0.1875 -0.046875 0.15625 -0.078125 C 0.132812 -0.109375 0.125 -0.140625 0.125 -0.171875 L 0.28125 -0.359375 C 0.175781 -0.410156 0.125 -0.507812 0.125 -0.65625 C 0.125 -0.757812 0.15625 -0.835938 0.21875 -0.890625 C 0.289062 -0.953125 0.390625 -0.984375 0.515625 -0.984375 C 0.535156 -0.984375 0.566406 -0.976562 0.609375 -0.96875 C 0.648438 -0.96875 0.679688 -0.96875 0.703125 -0.96875 L 0.921875 -1.078125 L 0.96875 -1.03125 L 0.828125 -0.890625 C 0.867188 -0.835938 0.890625 -0.757812 0.890625 -0.65625 Z M 0.84375 0.125 C 0.84375 0.09375 0.832031 0.0625 0.8125 0.03125 C 0.789062 0.0078125 0.753906 0 0.703125 0 L 0.328125 0 C 0.296875 0.03125 0.269531 0.0625 0.25 0.09375 C 0.238281 0.132812 0.234375 0.171875 0.234375 0.203125 C 0.234375 0.265625 0.253906 0.304688 0.296875 0.328125 C 0.335938 0.359375 0.398438 0.375 0.484375 0.375 C 0.597656 0.375 0.6875 0.351562 0.75 0.3125 C 0.8125 0.269531 0.84375 0.207031 0.84375 0.125 Z M 0.5 -0.40625 C 0.582031 -0.40625 0.640625 -0.425781 0.671875 -0.46875 C 0.703125 -0.507812 0.71875 -0.570312 0.71875 -0.65625 C 0.71875 -0.75 0.695312 -0.8125 0.65625 -0.84375 C 0.625 -0.882812 0.578125 -0.90625 0.515625 -0.90625 C 0.441406 -0.90625 0.382812 -0.882812 0.34375 -0.84375 C 0.3125 -0.8125 0.296875 -0.75 0.296875 -0.65625 C 0.296875 -0.5625 0.3125 -0.492188 0.34375 -0.453125 C 0.382812 -0.421875 0.4375 -0.40625 0.5 -0.40625 Z M 0.5 -0.40625 "/></g></g></g><g clip-path="url(#e48cb45147)"><path stroke-linecap="butt" transform="matrix(0.761288, 0, 0, 0.761288, 0.750001, 56.910464)" fill="none" stroke-linejoin="miter" d="M 112.022378 3.329685 C 111.201401 2.770394 111.01155 2.61133 110.801174 2.267546 C 110.652372 2.031515 110.508701 1.441437 110.498439 1.148964 C 110.498439 0.969375 110.539488 0.630722 110.560012 0.420346 C 110.570274 0.261282 110.452259 0.127873 110.288063 0.127873 L 107.789213 0.127873 C 107.630149 0.127873 107.512133 0.261282 107.522396 0.420346 C 107.537789 0.630722 107.5891 0.959113 107.578838 1.148964 C 107.568575 1.441437 107.430036 2.031515 107.281233 2.267546 C 107.060596 2.61133 106.881007 2.770394 106.060029 3.329685 C 105.239052 3.888976 105.280101 4.627856 105.280101 4.627856 L 105.280101 12.057702 C 105.280101 12.50924 105.649541 12.87868 106.101078 12.87868 L 111.991592 12.87868 C 112.437998 12.87868 112.807438 12.50924 112.807438 12.057702 L 112.807438 4.627856 C 112.807438 4.627856 112.848487 3.888976 112.02751 3.329685 Z M 112.022378 3.329685 " stroke="#003a4a" stroke-width="0.25" stroke-opacity="1" stroke-miterlimit="10"/></g><path fill="#245117" d="M 83.191406 65.589844 L 83.761719 66.570312 L 84.332031 65.589844 Z M 83.191406 65.589844 " fill-opacity="1" fill-rule="nonzero"/><path fill="#245117" d="M 84.566406 66.707031 C 84.4375 66.792969 84.316406 66.816406 84.164062 66.800781 L 83.152344 66.800781 L 82.945312 66.707031 L 83.152344 66.617188 L 84.164062 66.617188 C 84.316406 66.601562 84.4375 66.625 84.566406 66.707031 " fill-opacity="1" fill-rule="nonzero"/><path fill="#245117" d="M 84.332031 58.128906 L 83.761719 57.140625 L 83.191406 58.128906 Z M 84.332031 58.128906 " fill-opacity="1" fill-rule="nonzero"/><g clip-path="url(#1336d62b00)"><path fill="#245117" d="M 82.953125 57.007812 C 83.082031 56.925781 83.203125 56.902344 83.355469 56.917969 L 84.371094 56.917969 L 84.574219 57.007812 L 84.371094 57.101562 L 83.355469 57.101562 C 83.203125 57.117188 83.082031 57.09375 82.953125 57.007812 " fill-opacity="1" fill-rule="nonzero"/></g><path fill="#245117" d="M 83.578125 61.941406 L 84.171875 61.941406 L 84.171875 62.003906 L 83.585938 62.003906 C 83.425781 62.003906 83.304688 62.109375 83.304688 62.253906 C 83.304688 62.414062 83.417969 62.527344 83.570312 62.527344 L 84.164062 62.527344 L 84.164062 62.589844 L 83.578125 62.589844 C 83.417969 62.589844 83.296875 62.695312 83.296875 62.839844 C 83.296875 63 83.410156 63.113281 83.5625 63.113281 L 84.15625 63.113281 L 84.15625 63.175781 L 83.25 63.175781 L 83.25 63.113281 L 83.386719 63.113281 C 83.289062 63.078125 83.226562 62.96875 83.226562 62.832031 C 83.226562 62.695312 83.304688 62.597656 83.425781 62.550781 C 83.3125 62.511719 83.226562 62.398438 83.226562 62.246094 C 83.226562 62.0625 83.363281 61.941406 83.5625 61.941406 " fill-opacity="1" fill-rule="nonzero"/><path fill="#245117" d="M 83.578125 60.441406 L 84.171875 60.441406 L 84.171875 60.503906 L 83.585938 60.503906 C 83.425781 60.503906 83.304688 60.609375 83.304688 60.753906 C 83.304688 60.914062 83.417969 61.027344 83.570312 61.027344 L 84.164062 61.027344 L 84.164062 61.089844 L 83.578125 61.089844 C 83.417969 61.089844 83.296875 61.195312 83.296875 61.339844 C 83.296875 61.5 83.410156 61.613281 83.5625 61.613281 L 84.15625 61.613281 L 84.15625 61.675781 L 83.25 61.675781 L 83.25 61.613281 L 83.386719 61.613281 C 83.289062 61.578125 83.226562 61.46875 83.226562 61.332031 C 83.226562 61.195312 83.304688 61.097656 83.425781 61.050781 C 83.3125 61.015625 83.226562 60.898438 83.226562 60.746094 C 83.226562 60.566406 83.363281 60.441406 83.5625 60.441406 " fill-opacity="1" fill-rule="nonzero"/><g clip-path="url(#de9cbd02c6)"><path stroke-linecap="butt" transform="matrix(0.761288, 0, 0, 0.761288, 0.750001, 56.910464)" fill="none" stroke-linejoin="miter" d="M 131.987525 3.329685 C 131.171679 2.770394 130.981828 2.61133 130.771452 2.267546 C 130.617519 2.031515 130.478979 1.441437 130.468717 1.148964 C 130.468717 0.969375 130.509765 0.630722 130.53029 0.420346 C 130.540552 0.261282 130.422537 0.127873 130.258341 0.127873 L 127.759491 0.127873 C 127.600426 0.127873 127.482411 0.261282 127.487542 0.420346 C 127.508067 0.630722 127.559378 0.959113 127.549115 1.148964 C 127.538853 1.441437 127.400313 2.031515 127.251511 2.267546 C 127.030873 2.61133 126.851285 2.770394 126.030307 3.329685 C 125.20933 3.888976 125.250378 4.627856 125.250378 4.627856 L 125.250378 12.057702 C 125.250378 12.50924 125.619818 12.87868 126.071356 12.87868 L 131.961869 12.87868 C 132.408276 12.87868 132.777716 12.50924 132.777716 12.057702 L 132.777716 4.627856 C 132.777716 4.627856 132.818765 3.888976 131.997787 3.329685 Z M 131.987525 3.329685 " stroke="#003a4a" stroke-width="0.25" stroke-opacity="1" stroke-miterlimit="10"/></g><path fill="#245117" d="M 97.210938 61.289062 L 96.230469 61.859375 L 97.210938 62.429688 Z M 97.210938 61.289062 " fill-opacity="1" fill-rule="nonzero"/><path fill="#245117" d="M 96.09375 62.664062 C 96.011719 62.535156 95.988281 62.414062 96.003906 62.261719 L 96.003906 61.25 L 96.09375 61.042969 L 96.183594 61.25 L 96.183594 62.261719 C 96.199219 62.414062 96.175781 62.535156 96.09375 62.664062 " fill-opacity="1" fill-rule="nonzero"/><path fill="#245117" d="M 100.707031 62.429688 L 101.6875 61.859375 L 100.707031 61.289062 Z M 100.707031 62.429688 " fill-opacity="1" fill-rule="nonzero"/><path fill="#245117" d="M 101.824219 61.050781 C 101.910156 61.179688 101.933594 61.304688 101.917969 61.457031 L 101.917969 62.46875 L 101.824219 62.671875 L 101.734375 62.46875 L 101.734375 61.457031 C 101.71875 61.304688 101.742188 61.179688 101.824219 61.050781 " fill-opacity="1" fill-rule="nonzero"/><g fill="#003a4a" fill-opacity="1"><g transform="translate(97.456373, 62.269928)"><g><path d="M 0.28125 -0.734375 C 0.320312 -0.765625 0.363281 -0.785156 0.40625 -0.796875 C 0.457031 -0.816406 0.503906 -0.828125 0.546875 -0.828125 C 0.578125 -0.828125 0.609375 -0.816406 0.640625 -0.796875 C 0.679688 -0.785156 0.707031 -0.765625 0.71875 -0.734375 C 0.769531 -0.753906 0.820312 -0.773438 0.875 -0.796875 C 0.9375 -0.816406 0.988281 -0.828125 1.03125 -0.828125 C 1.164062 -0.828125 1.234375 -0.75 1.234375 -0.59375 L 1.234375 -0.0625 L 1.328125 -0.03125 L 1.328125 0 L 0.96875 0 L 0.96875 -0.03125 L 1.09375 -0.0625 L 1.09375 -0.578125 C 1.09375 -0.671875 1.046875 -0.71875 0.953125 -0.71875 C 0.941406 -0.71875 0.925781 -0.71875 0.90625 -0.71875 C 0.882812 -0.71875 0.863281 -0.710938 0.84375 -0.703125 C 0.820312 -0.703125 0.800781 -0.695312 0.78125 -0.6875 C 0.769531 -0.6875 0.753906 -0.6875 0.734375 -0.6875 C 0.742188 -0.65625 0.75 -0.625 0.75 -0.59375 L 0.75 -0.0625 L 0.875 -0.03125 L 0.875 0 L 0.5 0 L 0.5 -0.03125 L 0.609375 -0.0625 L 0.609375 -0.578125 C 0.609375 -0.617188 0.597656 -0.648438 0.578125 -0.671875 C 0.554688 -0.703125 0.519531 -0.71875 0.46875 -0.71875 C 0.414062 -0.71875 0.351562 -0.707031 0.28125 -0.6875 L 0.28125 -0.0625 L 0.40625 -0.03125 L 0.40625 0 L 0.03125 0 L 0.03125 -0.03125 L 0.140625 -0.0625 L 0.140625 -0.75 L 0.03125 -0.765625 L 0.03125 -0.796875 L 0.265625 -0.796875 Z M 0.28125 -0.734375 "/></g></g></g><g fill="#003a4a" fill-opacity="1"><g transform="translate(98.814547, 62.269928)"><g><path d="M 0.28125 -0.734375 C 0.320312 -0.765625 0.363281 -0.785156 0.40625 -0.796875 C 0.457031 -0.816406 0.503906 -0.828125 0.546875 -0.828125 C 0.578125 -0.828125 0.609375 -0.816406 0.640625 -0.796875 C 0.679688 -0.785156 0.707031 -0.765625 0.71875 -0.734375 C 0.769531 -0.753906 0.820312 -0.773438 0.875 -0.796875 C 0.9375 -0.816406 0.988281 -0.828125 1.03125 -0.828125 C 1.164062 -0.828125 1.234375 -0.75 1.234375 -0.59375 L 1.234375 -0.0625 L 1.328125 -0.03125 L 1.328125 0 L 0.96875 0 L 0.96875 -0.03125 L 1.09375 -0.0625 L 1.09375 -0.578125 C 1.09375 -0.671875 1.046875 -0.71875 0.953125 -0.71875 C 0.941406 -0.71875 0.925781 -0.71875 0.90625 -0.71875 C 0.882812 -0.71875 0.863281 -0.710938 0.84375 -0.703125 C 0.820312 -0.703125 0.800781 -0.695312 0.78125 -0.6875 C 0.769531 -0.6875 0.753906 -0.6875 0.734375 -0.6875 C 0.742188 -0.65625 0.75 -0.625 0.75 -0.59375 L 0.75 -0.0625 L 0.875 -0.03125 L 0.875 0 L 0.5 0 L 0.5 -0.03125 L 0.609375 -0.0625 L 0.609375 -0.578125 C 0.609375 -0.617188 0.597656 -0.648438 0.578125 -0.671875 C 0.554688 -0.703125 0.519531 -0.71875 0.46875 -0.71875 C 0.414062 -0.71875 0.351562 -0.707031 0.28125 -0.6875 L 0.28125 -0.0625 L 0.40625 -0.03125 L 0.40625 0 L 0.03125 0 L 0.03125 -0.03125 L 0.140625 -0.0625 L 0.140625 -0.75 L 0.03125 -0.765625 L 0.03125 -0.796875 L 0.265625 -0.796875 Z M 0.28125 -0.734375 "/></g></g></g><g clip-path="url(#5036e961b3)"><g mask="url(#fea5baa62d)"><g transform="matrix(1, 0, 0, 1, 35, 56)"><g clip-path="url(#bb7f56fcbb)"><g clip-path="url(#a128383fd7)"><path fill="#87b246" d="M 6.015625 3.445312 C 5.390625 3.019531 5.253906 2.898438 5.085938 2.636719 C 4.972656 2.457031 4.863281 2.007812 4.855469 1.785156 C 4.855469 1.648438 4.894531 1.390625 4.902344 1.230469 C 4.910156 1.109375 4.820312 1.007812 4.699219 1.007812 L 2.792969 1.007812 C 2.671875 1.007812 2.582031 1.109375 2.589844 1.230469 C 2.605469 1.390625 2.640625 1.640625 2.632812 1.785156 C 2.625 2.007812 2.527344 2.457031 2.40625 2.636719 C 2.238281 2.898438 2.101562 3.019531 1.476562 3.445312 C 0.851562 3.871094 0.882812 4.433594 0.882812 4.433594 L 0.882812 10.089844 C 0.882812 10.433594 1.164062 10.714844 1.507812 10.714844 L 5.992188 10.714844 C 6.335938 10.714844 6.617188 10.433594 6.617188 10.089844 L 6.617188 4.433594 C 6.617188 4.433594 6.644531 3.871094 6.023438 3.445312 " fill-opacity="1" fill-rule="nonzero"/></g></g></g></g></g><g clip-path="url(#bdeae9901a)"><path stroke-linecap="butt" transform="matrix(0.761288, 0, 0, 0.761288, 0.750001, 56.910464)" fill="none" stroke-linejoin="miter" d="M 52.891474 3.329685 C 52.070496 2.770394 51.890908 2.61133 51.67027 2.267546 C 51.521468 2.031515 51.377797 1.441437 51.367535 1.148964 C 51.367535 0.969375 51.418846 0.630722 51.429108 0.420346 C 51.43937 0.261282 51.321355 0.127873 51.16229 0.127873 L 48.658309 0.127873 C 48.499244 0.127873 48.381229 0.261282 48.391491 0.420346 C 48.412016 0.630722 48.458195 0.959113 48.447933 1.148964 C 48.437671 1.441437 48.309393 2.031515 48.150329 2.267546 C 47.929691 2.61133 47.750102 2.770394 46.929125 3.329685 C 46.108147 3.888976 46.149196 4.627856 46.149196 4.627856 L 46.149196 12.057702 C 46.149196 12.50924 46.518636 12.87868 46.970174 12.87868 L 52.860687 12.87868 C 53.312225 12.87868 53.681665 12.50924 53.681665 12.057702 L 53.681665 4.627856 C 53.681665 4.627856 53.717583 3.888976 52.901736 3.329685 Z M 52.891474 3.329685 " stroke="#003a4a" stroke-width="0.25" stroke-opacity="1" stroke-miterlimit="10"/></g><g fill="#003a4a" fill-opacity="1"><g transform="translate(37.824707, 62.269928)"><g><path d="M 0.28125 -0.734375 C 0.320312 -0.765625 0.363281 -0.785156 0.40625 -0.796875 C 0.457031 -0.816406 0.503906 -0.828125 0.546875 -0.828125 C 0.578125 -0.828125 0.609375 -0.816406 0.640625 -0.796875 C 0.679688 -0.785156 0.707031 -0.765625 0.71875 -0.734375 C 0.769531 -0.753906 0.820312 -0.773438 0.875 -0.796875 C 0.9375 -0.816406 0.988281 -0.828125 1.03125 -0.828125 C 1.164062 -0.828125 1.234375 -0.75 1.234375 -0.59375 L 1.234375 -0.0625 L 1.328125 -0.03125 L 1.328125 0 L 0.96875 0 L 0.96875 -0.03125 L 1.09375 -0.0625 L 1.09375 -0.578125 C 1.09375 -0.671875 1.046875 -0.71875 0.953125 -0.71875 C 0.941406 -0.71875 0.925781 -0.71875 0.90625 -0.71875 C 0.882812 -0.71875 0.863281 -0.710938 0.84375 -0.703125 C 0.820312 -0.703125 0.800781 -0.695312 0.78125 -0.6875 C 0.769531 -0.6875 0.753906 -0.6875 0.734375 -0.6875 C 0.742188 -0.65625 0.75 -0.625 0.75 -0.59375 L 0.75 -0.0625 L 0.875 -0.03125 L 0.875 0 L 0.5 0 L 0.5 -0.03125 L 0.609375 -0.0625 L 0.609375 -0.578125 C 0.609375 -0.617188 0.597656 -0.648438 0.578125 -0.671875 C 0.554688 -0.703125 0.519531 -0.71875 0.46875 -0.71875 C 0.414062 -0.71875 0.351562 -0.707031 0.28125 -0.6875 L 0.28125 -0.0625 L 0.40625 -0.03125 L 0.40625 0 L 0.03125 0 L 0.03125 -0.03125 L 0.140625 -0.0625 L 0.140625 -0.75 L 0.03125 -0.765625 L 0.03125 -0.796875 L 0.265625 -0.796875 Z M 0.28125 -0.734375 "/></g></g></g><g fill="#003a4a" fill-opacity="1"><g transform="translate(39.182881, 62.269928)"><g><path d="M 0.3125 -0.0625 L 0.453125 -0.03125 L 0.453125 0 L 0.03125 0 L 0.03125 -0.03125 L 0.171875 -0.0625 L 0.171875 -1.15625 L 0.03125 -1.171875 L 0.03125 -1.21875 L 0.3125 -1.21875 Z M 0.3125 -0.0625 "/></g></g></g><g mask="url(#8f07aedc72)"><g transform="matrix(1, 0, 0, 1, 50, 58)"><g clip-path="url(#dcabf19bba)"><g clip-path="url(#500e077c35)"><path fill="#87b246" d="M 6.804688 8.082031 L 6.804688 2.433594 C 6.804688 2.433594 6.835938 1.871094 6.210938 1.445312 C 5.585938 1.019531 5.441406 0.898438 5.28125 0.636719 C 5.265625 0.609375 5.25 0.578125 5.226562 0.539062 L 2.648438 0.539062 C 2.648438 0.539062 2.617188 0.609375 2.601562 0.636719 C 2.433594 0.898438 2.296875 1.019531 1.671875 1.445312 C 1.046875 1.871094 1.078125 2.433594 1.078125 2.433594 L 1.078125 8.082031 C 1.078125 8.425781 1.359375 8.707031 1.703125 8.707031 L 6.1875 8.707031 C 6.53125 8.707031 6.8125 8.425781 6.8125 8.082031 " fill-opacity="1" fill-rule="nonzero"/></g></g></g></g><g clip-path="url(#8f84765615)"><path stroke-linecap="butt" transform="matrix(0.761288, 0, 0, 0.761288, 0.750001, 56.910464)" fill="none" stroke-linejoin="miter" d="M 72.851489 3.329685 C 72.030512 2.770394 71.850923 2.61133 71.630285 2.267546 C 71.481483 2.031515 71.337812 1.441437 71.32755 1.148964 C 71.32755 0.969375 71.378861 0.630722 71.389123 0.420346 C 71.399386 0.261282 71.28137 0.127873 71.122306 0.127873 L 68.618324 0.127873 C 68.45926 0.127873 68.341244 0.261282 68.351507 0.420346 C 68.372031 0.630722 68.418211 0.959113 68.407949 1.148964 C 68.397687 1.441437 68.269409 2.031515 68.110344 2.267546 C 67.889707 2.61133 67.710118 2.770394 66.88914 3.329685 C 66.068163 3.888976 66.109212 4.627856 66.109212 4.627856 L 66.109212 12.057702 C 66.109212 12.50924 66.478652 12.87868 66.930189 12.87868 L 72.820703 12.87868 C 73.27224 12.87868 73.64168 12.50924 73.64168 12.057702 L 73.64168 4.627856 C 73.64168 4.627856 73.677598 3.888976 72.861752 3.329685 Z M 72.851489 3.329685 " stroke="#003a4a" stroke-width="0.25" stroke-opacity="1" stroke-miterlimit="10"/></g><g fill="#003a4a" fill-opacity="1"><g transform="translate(53.027624, 62.269928)"><g><path d="M 0.28125 -0.734375 C 0.320312 -0.765625 0.363281 -0.785156 0.40625 -0.796875 C 0.457031 -0.816406 0.503906 -0.828125 0.546875 -0.828125 C 0.578125 -0.828125 0.609375 -0.816406 0.640625 -0.796875 C 0.679688 -0.785156 0.707031 -0.765625 0.71875 -0.734375 C 0.769531 -0.753906 0.820312 -0.773438 0.875 -0.796875 C 0.9375 -0.816406 0.988281 -0.828125 1.03125 -0.828125 C 1.164062 -0.828125 1.234375 -0.75 1.234375 -0.59375 L 1.234375 -0.0625 L 1.328125 -0.03125 L 1.328125 0 L 0.96875 0 L 0.96875 -0.03125 L 1.09375 -0.0625 L 1.09375 -0.578125 C 1.09375 -0.671875 1.046875 -0.71875 0.953125 -0.71875 C 0.941406 -0.71875 0.925781 -0.71875 0.90625 -0.71875 C 0.882812 -0.71875 0.863281 -0.710938 0.84375 -0.703125 C 0.820312 -0.703125 0.800781 -0.695312 0.78125 -0.6875 C 0.769531 -0.6875 0.753906 -0.6875 0.734375 -0.6875 C 0.742188 -0.65625 0.75 -0.625 0.75 -0.59375 L 0.75 -0.0625 L 0.875 -0.03125 L 0.875 0 L 0.5 0 L 0.5 -0.03125 L 0.609375 -0.0625 L 0.609375 -0.578125 C 0.609375 -0.617188 0.597656 -0.648438 0.578125 -0.671875 C 0.554688 -0.703125 0.519531 -0.71875 0.46875 -0.71875 C 0.414062 -0.71875 0.351562 -0.707031 0.28125 -0.6875 L 0.28125 -0.0625 L 0.40625 -0.03125 L 0.40625 0 L 0.03125 0 L 0.03125 -0.03125 L 0.140625 -0.0625 L 0.140625 -0.75 L 0.03125 -0.765625 L 0.03125 -0.796875 L 0.265625 -0.796875 Z M 0.28125 -0.734375 "/></g></g></g><g fill="#003a4a" fill-opacity="1"><g transform="translate(54.385797, 62.269928)"><g><path d="M 0.3125 -0.0625 L 0.453125 -0.03125 L 0.453125 0 L 0.03125 0 L 0.03125 -0.03125 L 0.171875 -0.0625 L 0.171875 -1.15625 L 0.03125 -1.171875 L 0.03125 -1.21875 L 0.3125 -1.21875 Z M 0.3125 -0.0625 "/></g></g></g><g clip-path="url(#c615f3e11a)"><path stroke-linecap="butt" transform="matrix(0.761288, 0, 0, 0.761288, 0.750001, 56.910464)" fill="none" stroke-linejoin="miter" d="M 151.588363 3.437439 C 150.977761 2.88841 150.839221 2.729346 150.680156 2.390692 C 150.562141 2.14953 150.469781 1.569715 150.459519 1.282373 C 150.459519 1.097653 150.490305 0.769262 150.500568 0.558886 C 150.500568 0.399822 150.41847 0.271544 150.300454 0.271544 L 148.437862 0.271544 C 148.319846 0.271544 148.227486 0.399822 148.237748 0.558886 C 148.248011 0.769262 148.289059 1.097653 148.278797 1.282373 C 148.278797 1.569715 148.171044 2.139268 148.05816 2.390692 C 147.899095 2.729346 147.760555 2.878148 147.149953 3.437439 C 146.539351 3.991598 146.570138 4.730478 146.570138 4.730478 L 146.570138 12.067965 C 146.570138 12.519502 146.842087 12.87868 147.18074 12.87868 L 151.557576 12.87868 C 151.90136 12.87868 152.168178 12.519502 152.168178 12.067965 L 152.168178 4.730478 C 152.168178 4.730478 152.198965 4.001861 151.588363 3.437439 Z M 151.588363 3.437439 " stroke="#003a4a" stroke-width="0.25" stroke-opacity="1" stroke-miterlimit="10"/></g><path fill="#245117" d="M 111.21875 62.484375 L 112.210938 61.914062 L 111.21875 61.347656 Z M 111.21875 62.484375 " fill-opacity="1" fill-rule="nonzero"/><path fill="#245117" d="M 112.339844 61.113281 C 112.421875 61.242188 112.445312 61.355469 112.429688 61.507812 L 112.429688 62.507812 L 112.339844 62.703125 L 112.25 62.507812 L 112.25 61.507812 C 112.234375 61.355469 112.253906 61.242188 112.339844 61.113281 " fill-opacity="1" fill-rule="nonzero"/><g fill="#003a4a" fill-opacity="1"><g transform="translate(112.97902, 62.323218)"><g><path d="M 0.28125 -0.71875 C 0.320312 -0.75 0.363281 -0.769531 0.40625 -0.78125 C 0.457031 -0.800781 0.5 -0.8125 0.53125 -0.8125 C 0.570312 -0.8125 0.609375 -0.800781 0.640625 -0.78125 C 0.671875 -0.769531 0.695312 -0.75 0.71875 -0.71875 C 0.757812 -0.738281 0.804688 -0.757812 0.859375 -0.78125 C 0.921875 -0.800781 0.96875 -0.8125 1 -0.8125 C 1.132812 -0.8125 1.203125 -0.734375 1.203125 -0.578125 L 1.203125 -0.0625 L 1.3125 -0.03125 L 1.3125 0 L 0.953125 0 L 0.953125 -0.03125 L 1.0625 -0.0625 L 1.0625 -0.5625 C 1.0625 -0.65625 1.019531 -0.703125 0.9375 -0.703125 C 0.914062 -0.703125 0.894531 -0.703125 0.875 -0.703125 C 0.863281 -0.703125 0.847656 -0.695312 0.828125 -0.6875 C 0.804688 -0.6875 0.785156 -0.6875 0.765625 -0.6875 C 0.753906 -0.6875 0.742188 -0.679688 0.734375 -0.671875 C 0.734375 -0.640625 0.734375 -0.609375 0.734375 -0.578125 L 0.734375 -0.0625 L 0.859375 -0.03125 L 0.859375 0 L 0.484375 0 L 0.484375 -0.03125 L 0.609375 -0.0625 L 0.609375 -0.5625 C 0.609375 -0.601562 0.59375 -0.632812 0.5625 -0.65625 C 0.539062 -0.6875 0.503906 -0.703125 0.453125 -0.703125 C 0.410156 -0.703125 0.351562 -0.695312 0.28125 -0.6875 L 0.28125 -0.0625 L 0.390625 -0.03125 L 0.390625 0 L 0.03125 0 L 0.03125 -0.03125 L 0.140625 -0.0625 L 0.140625 -0.734375 L 0.03125 -0.75 L 0.03125 -0.78125 L 0.265625 -0.78125 Z M 0.28125 -0.71875 "/></g></g></g><g fill="#003a4a" fill-opacity="1"><g transform="translate(114.318963, 62.323218)"><g><path d="M 0.28125 -0.71875 C 0.320312 -0.75 0.363281 -0.769531 0.40625 -0.78125 C 0.457031 -0.800781 0.5 -0.8125 0.53125 -0.8125 C 0.570312 -0.8125 0.609375 -0.800781 0.640625 -0.78125 C 0.671875 -0.769531 0.695312 -0.75 0.71875 -0.71875 C 0.757812 -0.738281 0.804688 -0.757812 0.859375 -0.78125 C 0.921875 -0.800781 0.96875 -0.8125 1 -0.8125 C 1.132812 -0.8125 1.203125 -0.734375 1.203125 -0.578125 L 1.203125 -0.0625 L 1.3125 -0.03125 L 1.3125 0 L 0.953125 0 L 0.953125 -0.03125 L 1.0625 -0.0625 L 1.0625 -0.5625 C 1.0625 -0.65625 1.019531 -0.703125 0.9375 -0.703125 C 0.914062 -0.703125 0.894531 -0.703125 0.875 -0.703125 C 0.863281 -0.703125 0.847656 -0.695312 0.828125 -0.6875 C 0.804688 -0.6875 0.785156 -0.6875 0.765625 -0.6875 C 0.753906 -0.6875 0.742188 -0.679688 0.734375 -0.671875 C 0.734375 -0.640625 0.734375 -0.609375 0.734375 -0.578125 L 0.734375 -0.0625 L 0.859375 -0.03125 L 0.859375 0 L 0.484375 0 L 0.484375 -0.03125 L 0.609375 -0.0625 L 0.609375 -0.5625 C 0.609375 -0.601562 0.59375 -0.632812 0.5625 -0.65625 C 0.539062 -0.6875 0.503906 -0.703125 0.453125 -0.703125 C 0.410156 -0.703125 0.351562 -0.695312 0.28125 -0.6875 L 0.28125 -0.0625 L 0.390625 -0.03125 L 0.390625 0 L 0.03125 0 L 0.03125 -0.03125 L 0.140625 -0.0625 L 0.140625 -0.734375 L 0.03125 -0.75 L 0.03125 -0.78125 L 0.265625 -0.78125 Z M 0.28125 -0.71875 "/></g></g></g><path fill="#245117" d="M 117.714844 61.347656 L 116.730469 61.914062 L 117.714844 62.484375 Z M 117.714844 61.347656 " fill-opacity="1" fill-rule="nonzero"/><path fill="#245117" d="M 116.59375 62.710938 C 116.511719 62.582031 116.488281 62.46875 116.503906 62.316406 L 116.503906 61.316406 L 116.59375 61.121094 L 116.6875 61.316406 L 116.6875 62.316406 C 116.703125 62.46875 116.679688 62.582031 116.59375 62.710938 " fill-opacity="1" fill-rule="nonzero"/><path fill="#245117" d="M 138.519531 59.941406 L 138.046875 59.941406 L 138.046875 59.871094 L 139.066406 59.871094 L 139.066406 59.941406 L 138.589844 59.941406 L 138.589844 61.167969 L 138.519531 61.167969 Z M 138.519531 59.941406 " fill-opacity="1" fill-rule="nonzero"/><path fill="#245117" d="M 139.234375 61.476562 L 139.25 61.410156 C 139.296875 61.433594 139.34375 61.449219 139.386719 61.449219 C 139.472656 61.449219 139.546875 61.410156 139.578125 61.355469 L 139.640625 61.21875 L 139.207031 60.199219 L 139.28125 60.199219 L 139.675781 61.128906 L 140.058594 60.199219 L 140.132812 60.199219 L 139.675781 61.316406 C 139.625 61.449219 139.53125 61.515625 139.394531 61.515625 C 139.34375 61.515625 139.28125 61.507812 139.242188 61.484375 " fill-opacity="1" fill-rule="nonzero"/><path fill="#245117" d="M 141.277344 60.679688 C 141.277344 60.953125 141.078125 61.1875 140.835938 61.1875 C 140.667969 61.1875 140.53125 61.105469 140.445312 60.960938 L 140.445312 61.492188 L 140.378906 61.492188 L 140.378906 60.191406 L 140.445312 60.191406 L 140.445312 60.398438 C 140.523438 60.261719 140.660156 60.167969 140.835938 60.167969 C 141.070312 60.167969 141.277344 60.40625 141.277344 60.679688 M 141.207031 60.679688 C 141.207031 60.433594 141.03125 60.238281 140.828125 60.238281 C 140.621094 60.238281 140.453125 60.421875 140.453125 60.679688 C 140.453125 60.9375 140.605469 61.121094 140.828125 61.121094 C 141.046875 61.121094 141.207031 60.914062 141.207031 60.679688 " fill-opacity="1" fill-rule="nonzero"/><path fill="#245117" d="M 142.3125 60.992188 L 142.355469 61.042969 C 142.273438 61.136719 142.105469 61.195312 141.945312 61.195312 C 141.6875 61.195312 141.464844 60.960938 141.464844 60.6875 C 141.464844 60.414062 141.679688 60.175781 141.945312 60.175781 C 142.210938 60.175781 142.410156 60.398438 142.410156 60.71875 L 141.535156 60.71875 C 141.550781 60.945312 141.734375 61.128906 141.945312 61.128906 C 142.082031 61.128906 142.226562 61.082031 142.304688 60.992188 M 141.535156 60.640625 L 142.34375 60.640625 C 142.335938 60.398438 142.175781 60.238281 141.945312 60.238281 C 141.71875 60.238281 141.550781 60.414062 141.535156 60.640625 " fill-opacity="1" fill-rule="nonzero"/><path stroke-linecap="butt" transform="matrix(0.761288, 0, 0, 0.761288, 0.750001, 56.910464)" fill="none" stroke-linejoin="miter" d="M 188.101337 12.868418 C 187.757553 12.560551 187.552308 12.288602 187.321408 11.929425 C 186.962231 11.359872 186.659495 10.020652 186.628709 9.348477 C 186.608184 8.927726 186.731331 8.158059 186.77238 7.680866 C 186.798035 7.321688 186.510693 7.008691 186.151516 7.008691 L 180.38928 7.008691 C 180.030102 7.008691 179.737629 7.321688 179.768415 7.680866 C 179.809464 8.158059 179.922349 8.937988 179.912087 9.348477 C 179.8813 10.020652 179.578564 11.370134 179.219387 11.929425 C 178.988487 12.288602 178.778111 12.560551 178.439458 12.868418 " stroke="#003a4a" stroke-width="0.25" stroke-opacity="1" stroke-miterlimit="10"/><g mask="url(#25ac330a24)"><g transform="matrix(1, 0, 0, 1, 136, 62)"><g clip-path="url(#8dd238e786)"><path fill="#245117" d="M 1.410156 1.359375 C 2.238281 1.199219 3.511719 1.28125 4.363281 1.265625 L 6.578125 1.265625 L 7.316406 1.359375 L 6.578125 1.449219 L 4.363281 1.449219 C 3.511719 1.433594 2.246094 1.511719 1.410156 1.359375 " fill-opacity="1" fill-rule="nonzero"/><g clip-path="url(#a9521245a5)"><path fill="#245117" d="M 1.316406 2.074219 C 2.148438 1.914062 3.417969 2 4.269531 1.984375 L 6.488281 1.984375 L 7.226562 2.074219 L 6.488281 2.164062 L 4.269531 2.164062 C 3.417969 2.148438 2.15625 2.226562 1.316406 2.074219 " fill-opacity="1" fill-rule="nonzero"/></g></g></g></g><g clip-path="url(#3a994c8363)"><g fill="#231f20" fill-opacity="1"><g transform="translate(0.750001, 78.888835)"><g><path d="M 2.125 0.0625 C 1.53125 0.0625 1.066406 -0.0976562 0.734375 -0.421875 C 0.398438 -0.753906 0.234375 -1.210938 0.234375 -1.796875 C 0.234375 -2.429688 0.390625 -2.910156 0.703125 -3.234375 C 1.023438 -3.554688 1.503906 -3.71875 2.140625 -3.71875 C 2.515625 -3.71875 2.925781 -3.671875 3.375 -3.578125 L 3.390625 -2.78125 L 3.203125 -2.78125 L 3.125 -3.25 C 3 -3.332031 2.847656 -3.394531 2.671875 -3.4375 C 2.503906 -3.476562 2.332031 -3.5 2.15625 -3.5 C 1.6875 -3.5 1.34375 -3.359375 1.125 -3.078125 C 0.914062 -2.804688 0.8125 -2.378906 0.8125 -1.796875 C 0.8125 -1.265625 0.921875 -0.859375 1.140625 -0.578125 C 1.367188 -0.296875 1.695312 -0.15625 2.125 -0.15625 C 2.332031 -0.15625 2.53125 -0.179688 2.71875 -0.234375 C 2.90625 -0.285156 3.050781 -0.351562 3.15625 -0.4375 L 3.265625 -0.984375 L 3.4375 -0.984375 L 3.421875 -0.125 C 3.023438 0 2.59375 0.0625 2.125 0.0625 Z M 2.125 0.0625 "/></g></g></g></g><g fill="#231f20" fill-opacity="1"><g transform="translate(4.494016, 78.888835)"><g><path d="M 1.015625 -0.1875 L 1.453125 -0.125 L 1.453125 0 L 0.109375 0 L 0.109375 -0.125 L 0.546875 -0.1875 L 0.546875 -3.71875 L 0.109375 -3.78125 L 0.109375 -3.90625 L 1.015625 -3.90625 Z M 1.015625 -0.1875 "/></g></g></g><g fill="#231f20" fill-opacity="1"><g transform="translate(5.44922, 78.888835)"><g><path d="M 0.71875 -1.296875 L 0.71875 -1.25 C 0.71875 -1 0.742188 -0.800781 0.796875 -0.65625 C 0.847656 -0.519531 0.929688 -0.414062 1.046875 -0.34375 C 1.171875 -0.269531 1.328125 -0.234375 1.515625 -0.234375 C 1.609375 -0.234375 1.722656 -0.238281 1.859375 -0.25 C 1.992188 -0.269531 2.109375 -0.289062 2.203125 -0.3125 L 2.203125 -0.15625 C 2.109375 -0.101562 1.984375 -0.0507812 1.828125 0 C 1.679688 0.0390625 1.53125 0.0625 1.375 0.0625 C 0.976562 0.0625 0.6875 -0.046875 0.5 -0.265625 C 0.3125 -0.484375 0.21875 -0.832031 0.21875 -1.3125 C 0.21875 -1.757812 0.3125 -2.09375 0.5 -2.3125 C 0.6875 -2.539062 0.957031 -2.65625 1.3125 -2.65625 C 1.96875 -2.65625 2.296875 -2.28125 2.296875 -1.53125 L 2.296875 -1.296875 Z M 1.3125 -2.4375 C 1.125 -2.4375 0.976562 -2.359375 0.875 -2.203125 C 0.769531 -2.046875 0.71875 -1.816406 0.71875 -1.515625 L 1.828125 -1.515625 C 1.828125 -1.847656 1.785156 -2.082031 1.703125 -2.21875 C 1.617188 -2.363281 1.488281 -2.4375 1.3125 -2.4375 Z M 1.3125 -2.4375 "/></g></g></g><g fill="#231f20" fill-opacity="1"><g transform="translate(8.191407, 78.888835)"><g><path d="M 1.28125 -2.640625 C 1.5625 -2.640625 1.765625 -2.582031 1.890625 -2.46875 C 2.023438 -2.351562 2.09375 -2.175781 2.09375 -1.9375 L 2.09375 -0.1875 L 2.421875 -0.125 L 2.421875 0 L 1.71875 0 L 1.65625 -0.265625 C 1.445312 -0.046875 1.179688 0.0625 0.859375 0.0625 C 0.421875 0.0625 0.203125 -0.195312 0.203125 -0.71875 C 0.203125 -0.882812 0.234375 -1.023438 0.296875 -1.140625 C 0.359375 -1.253906 0.460938 -1.335938 0.609375 -1.390625 C 0.765625 -1.453125 0.976562 -1.488281 1.25 -1.5 L 1.640625 -1.515625 L 1.640625 -1.90625 C 1.640625 -2.082031 1.609375 -2.210938 1.546875 -2.296875 C 1.484375 -2.390625 1.382812 -2.4375 1.25 -2.4375 C 1.0625 -2.4375 0.890625 -2.390625 0.734375 -2.296875 L 0.640625 -1.984375 L 0.5 -1.984375 L 0.5 -2.546875 C 0.789062 -2.609375 1.050781 -2.640625 1.28125 -2.640625 Z M 1.640625 -1.3125 L 1.28125 -1.296875 C 1.039062 -1.296875 0.875 -1.25 0.78125 -1.15625 C 0.695312 -1.070312 0.65625 -0.929688 0.65625 -0.734375 C 0.65625 -0.410156 0.785156 -0.25 1.046875 -0.25 C 1.171875 -0.25 1.273438 -0.257812 1.359375 -0.28125 C 1.453125 -0.3125 1.546875 -0.347656 1.640625 -0.390625 Z M 1.640625 -1.3125 "/></g></g></g><g fill="#231f20" fill-opacity="1"><g transform="translate(10.682855, 78.888835)"><g><path d="M 1.828125 -2.65625 L 1.828125 -1.953125 L 1.703125 -1.953125 L 1.546875 -2.25 C 1.453125 -2.25 1.34375 -2.238281 1.21875 -2.21875 C 1.09375 -2.195312 0.984375 -2.164062 0.890625 -2.125 L 0.890625 -0.1875 L 1.34375 -0.125 L 1.34375 0 L 0.109375 0 L 0.109375 -0.125 L 0.4375 -0.1875 L 0.4375 -2.390625 L 0.109375 -2.453125 L 0.109375 -2.578125 L 0.859375 -2.578125 L 0.890625 -2.265625 C 1.003906 -2.347656 1.15625 -2.429688 1.34375 -2.515625 C 1.53125 -2.609375 1.675781 -2.65625 1.78125 -2.65625 Z M 1.828125 -2.65625 "/></g></g></g><g fill="#231f20" fill-opacity="1"><g transform="translate(35.007945, 78.888835)"><g><path d="M 1.71875 -0.21875 L 2.46875 -0.140625 L 2.46875 0 L 0.5 0 L 0.5 -0.140625 L 1.25 -0.21875 L 1.25 -3.21875 L 0.5 -2.953125 L 0.5 -3.109375 L 1.578125 -3.71875 L 1.71875 -3.71875 Z M 1.71875 -0.21875 "/></g></g></g><g fill="#231f20" fill-opacity="1"><g transform="translate(37.60612, 78.888835)"><g><path d="M 1.71875 -0.21875 L 2.46875 -0.140625 L 2.46875 0 L 0.5 0 L 0.5 -0.140625 L 1.25 -0.21875 L 1.25 -3.21875 L 0.5 -2.953125 L 0.5 -3.109375 L 1.578125 -3.71875 L 1.71875 -3.71875 Z M 1.71875 -0.21875 "/></g></g></g><g fill="#231f20" fill-opacity="1"><g transform="translate(40.412761, 78.888835)"><g><path d="M 0.1875 -2.5625 C 0.1875 -2.925781 0.285156 -3.207031 0.484375 -3.40625 C 0.691406 -3.613281 0.988281 -3.71875 1.375 -3.71875 C 1.789062 -3.71875 2.09375 -3.566406 2.28125 -3.265625 C 2.476562 -2.960938 2.578125 -2.488281 2.578125 -1.84375 C 2.578125 -1.226562 2.453125 -0.753906 2.203125 -0.421875 C 1.953125 -0.0976562 1.597656 0.0625 1.140625 0.0625 C 0.847656 0.0625 0.578125 0.03125 0.328125 -0.03125 L 0.328125 -0.671875 L 0.5 -0.671875 L 0.59375 -0.28125 C 0.65625 -0.25 0.734375 -0.222656 0.828125 -0.203125 C 0.929688 -0.179688 1.035156 -0.171875 1.140625 -0.171875 C 1.429688 -0.171875 1.65625 -0.296875 1.8125 -0.546875 C 1.96875 -0.804688 2.054688 -1.1875 2.078125 -1.6875 C 1.796875 -1.539062 1.507812 -1.46875 1.21875 -1.46875 C 0.894531 -1.46875 0.640625 -1.5625 0.453125 -1.75 C 0.273438 -1.945312 0.1875 -2.21875 0.1875 -2.5625 Z M 1.375 -3.5 C 0.914062 -3.5 0.6875 -3.179688 0.6875 -2.546875 C 0.6875 -2.265625 0.738281 -2.054688 0.84375 -1.921875 C 0.957031 -1.796875 1.128906 -1.734375 1.359375 -1.734375 C 1.597656 -1.734375 1.835938 -1.78125 2.078125 -1.875 C 2.078125 -2.4375 2.019531 -2.847656 1.90625 -3.109375 C 1.800781 -3.367188 1.625 -3.5 1.375 -3.5 Z M 1.375 -3.5 "/></g></g></g><g fill="#231f20" fill-opacity="1"><g transform="translate(49.312539, 78.888835)"><g><path d="M 1.71875 -0.21875 L 2.46875 -0.140625 L 2.46875 0 L 0.5 0 L 0.5 -0.140625 L 1.25 -0.21875 L 1.25 -3.21875 L 0.5 -2.953125 L 0.5 -3.109375 L 1.578125 -3.71875 L 1.71875 -3.71875 Z M 1.71875 -0.21875 "/></g></g></g><g fill="#231f20" fill-opacity="1"><g transform="translate(52.11918, 78.888835)"><g><path d="M 2.59375 -1.859375 C 2.59375 -0.578125 2.191406 0.0625 1.390625 0.0625 C 1.003906 0.0625 0.710938 -0.0976562 0.515625 -0.421875 C 0.316406 -0.753906 0.21875 -1.234375 0.21875 -1.859375 C 0.21875 -2.460938 0.316406 -2.925781 0.515625 -3.25 C 0.710938 -3.570312 1.007812 -3.734375 1.40625 -3.734375 C 1.800781 -3.734375 2.097656 -3.570312 2.296875 -3.25 C 2.492188 -2.9375 2.59375 -2.472656 2.59375 -1.859375 Z M 2.09375 -1.859375 C 2.09375 -2.441406 2.035156 -2.863281 1.921875 -3.125 C 1.816406 -3.382812 1.640625 -3.515625 1.390625 -3.515625 C 1.148438 -3.515625 0.976562 -3.390625 0.875 -3.140625 C 0.769531 -2.898438 0.71875 -2.472656 0.71875 -1.859375 C 0.71875 -1.234375 0.769531 -0.789062 0.875 -0.53125 C 0.976562 -0.28125 1.148438 -0.15625 1.390625 -0.15625 C 1.628906 -0.15625 1.804688 -0.289062 1.921875 -0.5625 C 2.035156 -0.832031 2.09375 -1.265625 2.09375 -1.859375 Z M 2.09375 -1.859375 "/></g></g></g><g fill="#231f20" fill-opacity="1"><g transform="translate(54.92582, 78.888835)"><g><path d="M 2.59375 -1.859375 C 2.59375 -0.578125 2.191406 0.0625 1.390625 0.0625 C 1.003906 0.0625 0.710938 -0.0976562 0.515625 -0.421875 C 0.316406 -0.753906 0.21875 -1.234375 0.21875 -1.859375 C 0.21875 -2.460938 0.316406 -2.925781 0.515625 -3.25 C 0.710938 -3.570312 1.007812 -3.734375 1.40625 -3.734375 C 1.800781 -3.734375 2.097656 -3.570312 2.296875 -3.25 C 2.492188 -2.9375 2.59375 -2.472656 2.59375 -1.859375 Z M 2.09375 -1.859375 C 2.09375 -2.441406 2.035156 -2.863281 1.921875 -3.125 C 1.816406 -3.382812 1.640625 -3.515625 1.390625 -3.515625 C 1.148438 -3.515625 0.976562 -3.390625 0.875 -3.140625 C 0.769531 -2.898438 0.71875 -2.472656 0.71875 -1.859375 C 0.71875 -1.234375 0.769531 -0.789062 0.875 -0.53125 C 0.976562 -0.28125 1.148438 -0.15625 1.390625 -0.15625 C 1.628906 -0.15625 1.804688 -0.289062 1.921875 -0.5625 C 2.035156 -0.832031 2.09375 -1.265625 2.09375 -1.859375 Z M 2.09375 -1.859375 "/></g></g></g><g fill="#231f20" fill-opacity="1"><g transform="translate(64.089122, 78.888835)"><g><path d="M 2.5 0 L 0.25 0 L 0.25 -0.40625 L 0.765625 -0.875 C 1.085938 -1.15625 1.328125 -1.382812 1.484375 -1.5625 C 1.640625 -1.738281 1.75 -1.921875 1.8125 -2.109375 C 1.875 -2.296875 1.90625 -2.515625 1.90625 -2.765625 C 1.90625 -3.003906 1.851562 -3.1875 1.75 -3.3125 C 1.644531 -3.4375 1.46875 -3.5 1.21875 -3.5 C 1.125 -3.5 1.023438 -3.484375 0.921875 -3.453125 C 0.816406 -3.421875 0.722656 -3.382812 0.640625 -3.34375 L 0.546875 -2.890625 L 0.375 -2.890625 L 0.375 -3.609375 C 0.707031 -3.679688 0.988281 -3.71875 1.21875 -3.71875 C 1.625 -3.71875 1.925781 -3.632812 2.125 -3.46875 C 2.332031 -3.300781 2.4375 -3.066406 2.4375 -2.765625 C 2.4375 -2.554688 2.394531 -2.359375 2.3125 -2.171875 C 2.226562 -1.992188 2.101562 -1.816406 1.9375 -1.640625 C 1.78125 -1.460938 1.507812 -1.207031 1.125 -0.875 C 0.957031 -0.738281 0.785156 -0.585938 0.609375 -0.421875 L 2.5 -0.421875 Z M 2.5 0 "/></g></g></g><g fill="#231f20" fill-opacity="1"><g transform="translate(66.895763, 78.888835)"><g><path d="M 2.484375 -2.78125 C 2.484375 -2.582031 2.429688 -2.410156 2.328125 -2.265625 C 2.234375 -2.128906 2.101562 -2.023438 1.9375 -1.953125 C 2.144531 -1.878906 2.304688 -1.757812 2.421875 -1.59375 C 2.535156 -1.425781 2.59375 -1.226562 2.59375 -1 C 2.59375 -0.644531 2.492188 -0.378906 2.296875 -0.203125 C 2.109375 -0.0234375 1.804688 0.0625 1.390625 0.0625 C 0.609375 0.0625 0.21875 -0.289062 0.21875 -1 C 0.21875 -1.238281 0.273438 -1.4375 0.390625 -1.59375 C 0.503906 -1.757812 0.660156 -1.878906 0.859375 -1.953125 C 0.703125 -2.023438 0.570312 -2.128906 0.46875 -2.265625 C 0.375 -2.410156 0.328125 -2.582031 0.328125 -2.78125 C 0.328125 -3.082031 0.421875 -3.316406 0.609375 -3.484375 C 0.796875 -3.648438 1.0625 -3.734375 1.40625 -3.734375 C 1.75 -3.734375 2.015625 -3.648438 2.203125 -3.484375 C 2.390625 -3.328125 2.484375 -3.09375 2.484375 -2.78125 Z M 2.109375 -1 C 2.109375 -1.289062 2.050781 -1.5 1.9375 -1.625 C 1.820312 -1.757812 1.640625 -1.828125 1.390625 -1.828125 C 1.148438 -1.828125 0.972656 -1.765625 0.859375 -1.640625 C 0.753906 -1.515625 0.703125 -1.300781 0.703125 -1 C 0.703125 -0.6875 0.753906 -0.46875 0.859375 -0.34375 C 0.972656 -0.21875 1.148438 -0.15625 1.390625 -0.15625 C 1.628906 -0.15625 1.804688 -0.21875 1.921875 -0.34375 C 2.046875 -0.476562 2.109375 -0.695312 2.109375 -1 Z M 1.984375 -2.78125 C 1.984375 -3.039062 1.929688 -3.226562 1.828125 -3.34375 C 1.734375 -3.457031 1.585938 -3.515625 1.390625 -3.515625 C 1.203125 -3.515625 1.0625 -3.457031 0.96875 -3.34375 C 0.875 -3.226562 0.828125 -3.039062 0.828125 -2.78125 C 0.828125 -2.53125 0.867188 -2.347656 0.953125 -2.234375 C 1.046875 -2.128906 1.191406 -2.078125 1.390625 -2.078125 C 1.597656 -2.078125 1.75 -2.128906 1.84375 -2.234375 C 1.9375 -2.347656 1.984375 -2.53125 1.984375 -2.78125 Z M 1.984375 -2.78125 "/></g></g></g><g fill="#231f20" fill-opacity="1"><g transform="translate(69.702404, 78.888835)"><g><path d="M 2.59375 -1.859375 C 2.59375 -0.578125 2.191406 0.0625 1.390625 0.0625 C 1.003906 0.0625 0.710938 -0.0976562 0.515625 -0.421875 C 0.316406 -0.753906 0.21875 -1.234375 0.21875 -1.859375 C 0.21875 -2.460938 0.316406 -2.925781 0.515625 -3.25 C 0.710938 -3.570312 1.007812 -3.734375 1.40625 -3.734375 C 1.800781 -3.734375 2.097656 -3.570312 2.296875 -3.25 C 2.492188 -2.9375 2.59375 -2.472656 2.59375 -1.859375 Z M 2.09375 -1.859375 C 2.09375 -2.441406 2.035156 -2.863281 1.921875 -3.125 C 1.816406 -3.382812 1.640625 -3.515625 1.390625 -3.515625 C 1.148438 -3.515625 0.976562 -3.390625 0.875 -3.140625 C 0.769531 -2.898438 0.71875 -2.472656 0.71875 -1.859375 C 0.71875 -1.234375 0.769531 -0.789062 0.875 -0.53125 C 0.976562 -0.28125 1.148438 -0.15625 1.390625 -0.15625 C 1.628906 -0.15625 1.804688 -0.289062 1.921875 -0.5625 C 2.035156 -0.832031 2.09375 -1.265625 2.09375 -1.859375 Z M 2.09375 -1.859375 "/></g></g></g><g fill="#231f20" fill-opacity="1"><g transform="translate(80.266492, 78.888835)"><g><path d="M 0.1875 -2.5625 C 0.1875 -2.925781 0.285156 -3.207031 0.484375 -3.40625 C 0.691406 -3.613281 0.988281 -3.71875 1.375 -3.71875 C 1.789062 -3.71875 2.09375 -3.566406 2.28125 -3.265625 C 2.476562 -2.960938 2.578125 -2.488281 2.578125 -1.84375 C 2.578125 -1.226562 2.453125 -0.753906 2.203125 -0.421875 C 1.953125 -0.0976562 1.597656 0.0625 1.140625 0.0625 C 0.847656 0.0625 0.578125 0.03125 0.328125 -0.03125 L 0.328125 -0.671875 L 0.5 -0.671875 L 0.59375 -0.28125 C 0.65625 -0.25 0.734375 -0.222656 0.828125 -0.203125 C 0.929688 -0.179688 1.035156 -0.171875 1.140625 -0.171875 C 1.429688 -0.171875 1.65625 -0.296875 1.8125 -0.546875 C 1.96875 -0.804688 2.054688 -1.1875 2.078125 -1.6875 C 1.796875 -1.539062 1.507812 -1.46875 1.21875 -1.46875 C 0.894531 -1.46875 0.640625 -1.5625 0.453125 -1.75 C 0.273438 -1.945312 0.1875 -2.21875 0.1875 -2.5625 Z M 1.375 -3.5 C 0.914062 -3.5 0.6875 -3.179688 0.6875 -2.546875 C 0.6875 -2.265625 0.738281 -2.054688 0.84375 -1.921875 C 0.957031 -1.796875 1.128906 -1.734375 1.359375 -1.734375 C 1.597656 -1.734375 1.835938 -1.78125 2.078125 -1.875 C 2.078125 -2.4375 2.019531 -2.847656 1.90625 -3.109375 C 1.800781 -3.367188 1.625 -3.5 1.375 -3.5 Z M 1.375 -3.5 "/></g></g></g><g fill="#231f20" fill-opacity="1"><g transform="translate(83.073132, 78.888835)"><g><path d="M 1.328125 -2.15625 C 1.753906 -2.15625 2.070312 -2.066406 2.28125 -1.890625 C 2.488281 -1.710938 2.59375 -1.445312 2.59375 -1.09375 C 2.59375 -0.726562 2.476562 -0.441406 2.25 -0.234375 C 2.03125 -0.0351562 1.707031 0.0625 1.28125 0.0625 C 0.9375 0.0625 0.628906 0.0195312 0.359375 -0.0625 L 0.328125 -0.84375 L 0.515625 -0.84375 L 0.625 -0.328125 C 0.707031 -0.273438 0.804688 -0.234375 0.921875 -0.203125 C 1.035156 -0.179688 1.144531 -0.171875 1.25 -0.171875 C 1.53125 -0.171875 1.738281 -0.238281 1.875 -0.375 C 2.019531 -0.507812 2.09375 -0.738281 2.09375 -1.0625 C 2.09375 -1.289062 2.0625 -1.460938 2 -1.578125 C 1.9375 -1.703125 1.84375 -1.789062 1.71875 -1.84375 C 1.59375 -1.894531 1.421875 -1.921875 1.203125 -1.921875 C 1.035156 -1.921875 0.875 -1.898438 0.71875 -1.859375 L 0.453125 -1.859375 L 0.453125 -3.6875 L 2.3125 -3.6875 L 2.3125 -3.265625 L 0.703125 -3.265625 L 0.703125 -2.09375 C 0.898438 -2.132812 1.109375 -2.15625 1.328125 -2.15625 Z M 1.328125 -2.15625 "/></g></g></g><g fill="#231f20" fill-opacity="1"><g transform="translate(95.895728, 78.888835)"><g><path d="M 1.328125 -2.15625 C 1.753906 -2.15625 2.070312 -2.066406 2.28125 -1.890625 C 2.488281 -1.710938 2.59375 -1.445312 2.59375 -1.09375 C 2.59375 -0.726562 2.476562 -0.441406 2.25 -0.234375 C 2.03125 -0.0351562 1.707031 0.0625 1.28125 0.0625 C 0.9375 0.0625 0.628906 0.0195312 0.359375 -0.0625 L 0.328125 -0.84375 L 0.515625 -0.84375 L 0.625 -0.328125 C 0.707031 -0.273438 0.804688 -0.234375 0.921875 -0.203125 C 1.035156 -0.179688 1.144531 -0.171875 1.25 -0.171875 C 1.53125 -0.171875 1.738281 -0.238281 1.875 -0.375 C 2.019531 -0.507812 2.09375 -0.738281 2.09375 -1.0625 C 2.09375 -1.289062 2.0625 -1.460938 2 -1.578125 C 1.9375 -1.703125 1.84375 -1.789062 1.71875 -1.84375 C 1.59375 -1.894531 1.421875 -1.921875 1.203125 -1.921875 C 1.035156 -1.921875 0.875 -1.898438 0.71875 -1.859375 L 0.453125 -1.859375 L 0.453125 -3.6875 L 2.3125 -3.6875 L 2.3125 -3.265625 L 0.703125 -3.265625 L 0.703125 -2.09375 C 0.898438 -2.132812 1.109375 -2.15625 1.328125 -2.15625 Z M 1.328125 -2.15625 "/></g></g></g><g fill="#231f20" fill-opacity="1"><g transform="translate(98.702368, 78.888835)"><g><path d="M 1.328125 -2.15625 C 1.753906 -2.15625 2.070312 -2.066406 2.28125 -1.890625 C 2.488281 -1.710938 2.59375 -1.445312 2.59375 -1.09375 C 2.59375 -0.726562 2.476562 -0.441406 2.25 -0.234375 C 2.03125 -0.0351562 1.707031 0.0625 1.28125 0.0625 C 0.9375 0.0625 0.628906 0.0195312 0.359375 -0.0625 L 0.328125 -0.84375 L 0.515625 -0.84375 L 0.625 -0.328125 C 0.707031 -0.273438 0.804688 -0.234375 0.921875 -0.203125 C 1.035156 -0.179688 1.144531 -0.171875 1.25 -0.171875 C 1.53125 -0.171875 1.738281 -0.238281 1.875 -0.375 C 2.019531 -0.507812 2.09375 -0.738281 2.09375 -1.0625 C 2.09375 -1.289062 2.0625 -1.460938 2 -1.578125 C 1.9375 -1.703125 1.84375 -1.789062 1.71875 -1.84375 C 1.59375 -1.894531 1.421875 -1.921875 1.203125 -1.921875 C 1.035156 -1.921875 0.875 -1.898438 0.71875 -1.859375 L 0.453125 -1.859375 L 0.453125 -3.6875 L 2.3125 -3.6875 L 2.3125 -3.265625 L 0.703125 -3.265625 L 0.703125 -2.09375 C 0.898438 -2.132812 1.109375 -2.15625 1.328125 -2.15625 Z M 1.328125 -2.15625 "/></g></g></g><g fill="#231f20" fill-opacity="1"><g transform="translate(111.403156, 78.888835)"><g><path d="M 2.21875 -0.8125 L 2.21875 0 L 1.75 0 L 1.75 -0.8125 L 0.109375 -0.8125 L 0.109375 -1.171875 L 1.90625 -3.703125 L 2.21875 -3.703125 L 2.21875 -1.203125 L 2.71875 -1.203125 L 2.71875 -0.8125 Z M 1.75 -3.0625 L 1.734375 -3.0625 L 0.421875 -1.203125 L 1.75 -1.203125 Z M 1.75 -3.0625 "/></g></g></g><g fill="#231f20" fill-opacity="1"><g transform="translate(114.209797, 78.888835)"><g><path d="M 1.328125 -2.15625 C 1.753906 -2.15625 2.070312 -2.066406 2.28125 -1.890625 C 2.488281 -1.710938 2.59375 -1.445312 2.59375 -1.09375 C 2.59375 -0.726562 2.476562 -0.441406 2.25 -0.234375 C 2.03125 -0.0351562 1.707031 0.0625 1.28125 0.0625 C 0.9375 0.0625 0.628906 0.0195312 0.359375 -0.0625 L 0.328125 -0.84375 L 0.515625 -0.84375 L 0.625 -0.328125 C 0.707031 -0.273438 0.804688 -0.234375 0.921875 -0.203125 C 1.035156 -0.179688 1.144531 -0.171875 1.25 -0.171875 C 1.53125 -0.171875 1.738281 -0.238281 1.875 -0.375 C 2.019531 -0.507812 2.09375 -0.738281 2.09375 -1.0625 C 2.09375 -1.289062 2.0625 -1.460938 2 -1.578125 C 1.9375 -1.703125 1.84375 -1.789062 1.71875 -1.84375 C 1.59375 -1.894531 1.421875 -1.921875 1.203125 -1.921875 C 1.035156 -1.921875 0.875 -1.898438 0.71875 -1.859375 L 0.453125 -1.859375 L 0.453125 -3.6875 L 2.3125 -3.6875 L 2.3125 -3.265625 L 0.703125 -3.265625 L 0.703125 -2.09375 C 0.898438 -2.132812 1.109375 -2.15625 1.328125 -2.15625 Z M 1.328125 -2.15625 "/></g></g></g><g fill="#231f20" fill-opacity="1"><g transform="translate(131.485921, 78.888835)"><g><path d="M 1.171875 -1.65625 L 1.171875 -0.21875 L 1.78125 -0.140625 L 1.78125 0 L 0.203125 0 L 0.203125 -0.140625 L 0.640625 -0.21875 L 0.640625 -3.46875 L 0.15625 -3.53125 L 0.15625 -3.6875 L 2.921875 -3.6875 L 2.921875 -2.796875 L 2.75 -2.796875 L 2.65625 -3.390625 C 2.445312 -3.421875 2.148438 -3.4375 1.765625 -3.4375 L 1.171875 -3.4375 L 1.171875 -1.90625 L 2.25 -1.90625 L 2.328125 -2.34375 L 2.5 -2.34375 L 2.5 -1.203125 L 2.328125 -1.203125 L 2.25 -1.65625 Z M 1.171875 -1.65625 "/></g></g></g><g fill="#231f20" fill-opacity="1"><g transform="translate(134.607766, 78.888835)"><g><path d="M 0.15625 -0.140625 L 0.640625 -0.21875 L 0.640625 -3.46875 L 0.15625 -3.53125 L 0.15625 -3.6875 L 2.921875 -3.6875 L 2.921875 -2.796875 L 2.75 -2.796875 L 2.65625 -3.390625 C 2.445312 -3.421875 2.148438 -3.4375 1.765625 -3.4375 L 1.171875 -3.4375 L 1.171875 -2 L 2.15625 -2 L 2.25 -2.4375 L 2.421875 -2.4375 L 2.421875 -1.296875 L 2.25 -1.296875 L 2.15625 -1.75 L 1.171875 -1.75 L 1.171875 -0.25 L 1.890625 -0.25 C 2.359375 -0.25 2.664062 -0.265625 2.8125 -0.296875 L 2.96875 -0.96875 L 3.15625 -0.96875 L 3.109375 0 L 0.15625 0 Z M 0.15625 -0.140625 "/></g></g></g><g fill="#231f20" fill-opacity="1"><g transform="translate(138.036588, 78.888835)"><g><path d="M 1.265625 -0.140625 L 1.265625 0 L 0.0625 0 L 0.0625 -0.140625 L 0.46875 -0.21875 L 1.734375 -3.71875 L 2.25 -3.71875 L 3.546875 -0.21875 L 4.015625 -0.140625 L 4.015625 0 L 2.46875 0 L 2.46875 -0.140625 L 2.953125 -0.21875 L 2.59375 -1.28125 L 1.140625 -1.28125 L 0.765625 -0.21875 Z M 1.859375 -3.3125 L 1.21875 -1.53125 L 2.5 -1.53125 Z M 1.859375 -3.3125 "/></g></g></g><g fill="#231f20" fill-opacity="1"><g transform="translate(141.780374, 78.888835)"><g/></g></g><g fill="#231f20" fill-opacity="1"><g transform="translate(143.183694, 78.888835)"><g><path d="M 1.71875 -0.21875 L 2.46875 -0.140625 L 2.46875 0 L 0.5 0 L 0.5 -0.140625 L 1.25 -0.21875 L 1.25 -3.21875 L 0.5 -2.953125 L 0.5 -3.109375 L 1.578125 -3.71875 L 1.71875 -3.71875 Z M 1.71875 -0.21875 "/></g></g></g><g fill="#231f20" fill-opacity="1"><g transform="translate(145.990335, 78.888835)"><g><path d="M 1.328125 -2.15625 C 1.753906 -2.15625 2.070312 -2.066406 2.28125 -1.890625 C 2.488281 -1.710938 2.59375 -1.445312 2.59375 -1.09375 C 2.59375 -0.726562 2.476562 -0.441406 2.25 -0.234375 C 2.03125 -0.0351562 1.707031 0.0625 1.28125 0.0625 C 0.9375 0.0625 0.628906 0.0195312 0.359375 -0.0625 L 0.328125 -0.84375 L 0.515625 -0.84375 L 0.625 -0.328125 C 0.707031 -0.273438 0.804688 -0.234375 0.921875 -0.203125 C 1.035156 -0.179688 1.144531 -0.171875 1.25 -0.171875 C 1.53125 -0.171875 1.738281 -0.238281 1.875 -0.375 C 2.019531 -0.507812 2.09375 -0.738281 2.09375 -1.0625 C 2.09375 -1.289062 2.0625 -1.460938 2 -1.578125 C 1.9375 -1.703125 1.84375 -1.789062 1.71875 -1.84375 C 1.59375 -1.894531 1.421875 -1.921875 1.203125 -1.921875 C 1.035156 -1.921875 0.875 -1.898438 0.71875 -1.859375 L 0.453125 -1.859375 L 0.453125 -3.6875 L 2.3125 -3.6875 L 2.3125 -3.265625 L 0.703125 -3.265625 L 0.703125 -2.09375 C 0.898438 -2.132812 1.109375 -2.15625 1.328125 -2.15625 Z M 1.328125 -2.15625 "/></g></g></g><path fill="#245117" d="M 2.628906 71.152344 C 40.070312 71.0625 115.414062 71.0625 152.847656 71.152344 C 115.40625 71.246094 40.0625 71.246094 2.628906 71.152344 " fill-opacity="1" fill-rule="nonzero"/><path fill="#85b344" d="M 9.140625 59.589844 L 9.054688 59.558594 C 8.773438 59.460938 8.46875 59.605469 8.371094 59.878906 L 6.207031 65.832031 C 6.109375 66.113281 6.253906 66.417969 6.527344 66.519531 L 6.613281 66.546875 C 6.886719 66.648438 7.199219 66.503906 7.296875 66.230469 L 9.460938 60.269531 C 9.558594 59.992188 9.414062 59.679688 9.140625 59.582031 " fill-opacity="1" fill-rule="nonzero"/><g clip-path="url(#8d89d0fcb6)"><path stroke-linecap="butt" transform="matrix(0.26075, -0.71524, 0.71524, 0.26075, -0.369092, 67.606558)" fill="none" stroke-linejoin="miter" d="M 5.138996 7.320801 L 13.467785 7.320998 C 13.860573 7.3198 14.169445 7.627729 14.170643 8.020517 L 14.172047 8.129234 C 14.171488 8.517201 13.858739 8.82783 13.470772 8.827271 L 5.137161 8.828831 C 4.749194 8.828272 4.440322 8.520343 4.440881 8.132376 L 4.440783 8.01226 C 4.439585 7.619472 4.747514 7.3106 5.140301 7.309402 Z M 5.138996 7.320801 " stroke="#003a4a" stroke-width="0.25" stroke-opacity="1" stroke-miterlimit="10"/></g><path stroke-linecap="butt" transform="matrix(0.761288, 0, 0, 0.761288, 0.750001, 56.910464)" fill-opacity="1" fill="#ffffff" fill-rule="nonzero" stroke-linejoin="miter" d="M 9.420715 5.530931 L 10.842033 6.049173 " stroke="#003a4a" stroke-width="0.25" stroke-opacity="1" stroke-miterlimit="10"/><path stroke-linecap="butt" transform="matrix(0.761288, 0, 0, 0.761288, 0.750001, 56.910464)" fill-opacity="1" fill="#ffffff" fill-rule="nonzero" stroke-linejoin="miter" d="M 8.589476 7.819406 L 10.010793 8.337648 " stroke="#003a4a" stroke-width="0.25" stroke-opacity="1" stroke-miterlimit="10"/><path stroke-linecap="butt" transform="matrix(0.761288, 0, 0, 0.761288, 0.750001, 56.910464)" fill-opacity="1" fill="#ffffff" fill-rule="nonzero" stroke-linejoin="miter" d="M 7.758236 10.097619 L 9.179553 10.620992 " stroke="#003a4a" stroke-width="0.25" stroke-opacity="1" stroke-miterlimit="10"/><path fill="#245117" d="M 7.890625 59.339844 L 7.808594 59.324219 C 7.519531 59.269531 7.234375 59.46875 7.191406 59.757812 L 6.09375 66 C 6.039062 66.289062 6.238281 66.570312 6.527344 66.617188 L 6.613281 66.632812 C 6.902344 66.683594 7.175781 66.488281 7.230469 66.199219 L 8.324219 59.957031 C 8.378906 59.667969 8.179688 59.382812 7.890625 59.339844 " fill-opacity="1" fill-rule="nonzero"/><g clip-path="url(#ae61f9a37c)"><path stroke-linecap="butt" transform="matrix(0.133766, -0.749443, 0.749443, 0.133766, 0.102907, 68.261264)" fill="none" stroke-linejoin="miter" d="M 4.320181 7.212201 L 12.649078 7.211076 C 13.039644 7.209123 13.350268 7.518535 13.352221 7.909102 L 13.347701 8.029789 C 13.349653 8.420356 13.040242 8.73098 12.648774 8.727881 L 4.309774 8.730809 C 3.918306 8.727711 3.607682 8.418299 3.611682 8.031882 L 3.612052 7.917148 C 3.611001 7.531632 3.930516 7.219205 4.31098 7.219056 Z M 4.320181 7.212201 " stroke="#003a4a" stroke-width="0.25" stroke-opacity="1" stroke-miterlimit="10"/></g><path stroke-linecap="butt" transform="matrix(0.761288, 0, 0, 0.761288, 0.750001, 56.910464)" fill-opacity="1" fill="#ffffff" fill-rule="nonzero" stroke-linejoin="miter" d="M 8.1482 5.438571 L 9.651615 5.700258 " stroke="#003a4a" stroke-width="0.25" stroke-opacity="1" stroke-miterlimit="10"/><path stroke-linecap="butt" transform="matrix(0.761288, 0, 0, 0.761288, 0.750001, 56.910464)" fill-opacity="1" fill="#ffffff" fill-rule="nonzero" stroke-linejoin="miter" d="M 7.727449 7.839931 L 9.230864 8.101617 " stroke="#003a4a" stroke-width="0.25" stroke-opacity="1" stroke-miterlimit="10"/><path stroke-linecap="butt" transform="matrix(0.761288, 0, 0, 0.761288, 0.750001, 56.910464)" fill-opacity="1" fill="#ffffff" fill-rule="nonzero" stroke-linejoin="miter" d="M 7.311829 10.231027 L 8.799851 10.497845 " stroke="#003a4a" stroke-width="0.25" stroke-opacity="1" stroke-miterlimit="10"/><path fill="#ffffff" d="M 6.621094 59.300781 L 6.535156 59.300781 C 6.238281 59.300781 6.003906 59.535156 6.003906 59.832031 L 6.003906 66.175781 C 6.003906 66.472656 6.238281 66.707031 6.535156 66.707031 L 6.621094 66.707031 C 6.917969 66.707031 7.152344 66.472656 7.152344 66.175781 L 7.152344 59.832031 C 7.152344 59.535156 6.917969 59.300781 6.621094 59.300781 " fill-opacity="1" fill-rule="nonzero"/><g clip-path="url(#c915bc2cc4)"><path stroke-linecap="butt" transform="matrix(0.761288, 0, 0, 0.761288, 0.750001, 56.910464)" fill="none" stroke-linejoin="miter" d="M 7.588909 3.139834 L 7.712056 3.139834 C 7.901907 3.139834 8.066103 3.206539 8.204642 3.345079 C 8.343182 3.483619 8.409887 3.647814 8.409887 3.837665 L 8.409887 12.170587 C 8.409887 12.365569 8.343182 12.529764 8.204642 12.663173 C 8.066103 12.801713 7.901907 12.868418 7.712056 12.868418 L 7.588909 12.868418 C 7.399058 12.868418 7.229732 12.801713 7.096323 12.663173 C 6.957783 12.529764 6.891078 12.365569 6.891078 12.170587 L 6.891078 3.837665 C 6.891078 3.647814 6.957783 3.483619 7.096323 3.345079 C 7.229732 3.206539 7.399058 3.139834 7.588909 3.139834 Z M 7.588909 3.139834 " stroke="#003a4a" stroke-width="0.25" stroke-opacity="1" stroke-miterlimit="10"/></g><path stroke-linecap="butt" transform="matrix(0.761288, 0, 0, 0.761288, 0.750001, 56.910464)" fill="none" stroke-linejoin="miter" d="M 6.891078 5.57198 L 8.409887 5.57198 " stroke="#003a4a" stroke-width="0.25" stroke-opacity="1" stroke-miterlimit="10"/><path stroke-linecap="butt" transform="matrix(0.761288, 0, 0, 0.761288, 0.750001, 56.910464)" fill="none" stroke-linejoin="miter" d="M 6.891078 7.998995 L 8.409887 7.998995 " stroke="#003a4a" stroke-width="0.25" stroke-opacity="1" stroke-miterlimit="10"/><path stroke-linecap="butt" transform="matrix(0.761288, 0, 0, 0.761288, 0.750001, 56.910464)" fill="none" stroke-linejoin="miter" d="M 6.891078 10.441403 L 8.409887 10.441403 " stroke="#003a4a" stroke-width="0.25" stroke-opacity="1" stroke-miterlimit="10"/><g clip-path="url(#8e713789a5)"><path stroke-linecap="butt" transform="matrix(0.761288, 0, 0, 0.761288, 0.750001, 56.910464)" fill="none" stroke-linejoin="miter" d="M 29.909235 28.749201 L 27.979938 28.749201 C 26.568883 28.749201 25.419514 27.610095 25.419514 26.188778 C 25.419514 24.76746 26.558621 23.628354 27.979938 23.628354 L 29.909235 23.628354 C 31.32029 23.628354 32.469659 24.76746 32.469659 26.188778 C 32.469659 27.610095 31.330552 28.749201 29.909235 28.749201 Z M 29.909235 28.749201 " stroke="#003a4a" stroke-width="0.25" stroke-opacity="1" stroke-miterlimit="10"/></g></svg>