<svg width="23" height="20" viewBox="0 0 23 20" fill="none" xmlns="http://www.w3.org/2000/svg">
<path d="M22.5674 16.1477L20.897 14.7263C21.0372 14.2096 20.8599 13.6682 20.4134 13.2868L18.3863 11.5563C18.3203 11.5 18.2514 11.4592 18.1932 11.4389C17.9422 11.3375 17.6408 11.3847 17.4426 11.554L16.9616 11.9602C16.9141 12.0008 16.8743 12.0482 16.8427 12.0979L16.6446 11.9287C16.4542 11.7685 16.1821 11.7279 15.9441 11.8002L15.9439 10.8161H17.1835C17.6962 10.8161 18.1112 10.4619 18.1112 10.0265V9.6565C18.1112 9.42191 17.9924 9.20972 17.802 9.06541C17.9924 8.92108 18.1112 8.71116 18.1112 8.4766V8.11116C18.1112 7.87884 17.9924 7.66665 17.802 7.52235C17.9924 7.37802 18.1112 7.16583 18.1112 6.93125V6.56581C18.1112 6.33122 17.9924 6.1213 17.7993 5.977C17.9897 5.83041 18.1112 5.61821 18.1112 5.38134L18.111 5.01783C18.111 4.58241 17.6934 4.22816 17.1833 4.22816H15.9439V1.69442C15.9439 0.760285 15.0533 0 13.959 0H4.16088C3.0666 0 2.17597 0.760285 2.17597 1.69442V11.8136L0.827988 12.9666C0.600727 13.1584 0.476542 13.4111 0.473877 13.6819C0.473877 13.955 0.598063 14.2122 0.825323 14.4062L1.24829 14.7671C1.47555 14.9611 1.78213 15.0648 2.08625 15.0648C2.11801 15.0648 2.14711 15.0603 2.17867 15.058V16.4613C2.17867 17.3954 3.0693 18.1557 4.16358 18.1557H13.9586C14.6088 18.1557 15.1982 17.8918 15.5656 17.4518C15.9859 17.8015 16.5806 17.9572 17.1566 17.8692L18.8561 19.3199C18.901 19.3582 18.9618 19.3785 19.0227 19.3785C19.0836 19.3785 19.1442 19.3582 19.1893 19.3199L22.5698 16.4342C22.6147 16.3959 22.6384 16.3462 22.6384 16.292C22.6384 16.2381 22.612 16.184 22.5671 16.1478L22.5674 16.1477ZM17.1833 4.63211C17.4344 4.63211 17.6405 4.80582 17.6405 5.01784V5.38328C17.6405 5.59985 17.4344 5.77811 17.1833 5.77811C17.0538 5.77811 16.9481 5.86837 16.9481 5.97893C16.9481 6.08949 17.0538 6.17976 17.1833 6.17976C17.4344 6.17976 17.6405 6.35347 17.6405 6.56549V6.93093C17.6405 7.14523 17.4344 7.32121 17.1833 7.32121C17.0538 7.32121 16.9481 7.41147 16.9481 7.52203C16.9481 7.63259 17.0538 7.72286 17.1833 7.72286C17.4344 7.72286 17.6405 7.89657 17.6405 8.10859V8.47403C17.6405 8.68605 17.4344 8.85976 17.1833 8.85976C17.0538 8.85976 16.9481 8.95003 16.9481 9.06059C16.9481 9.17115 17.0538 9.26141 17.1833 9.26141C17.4317 9.26141 17.6405 9.43967 17.6405 9.65169V10.0217C17.6405 10.2337 17.4344 10.4074 17.1833 10.4074L15.706 10.4081H14.9554C14.7043 10.4081 14.4982 10.2344 14.4982 10.0224V9.65239C14.4982 9.44037 14.707 9.26211 14.9554 9.26211C15.0849 9.26211 15.1906 9.17185 15.1906 9.06129C15.1906 8.95073 15.0849 8.86046 14.9554 8.86046C14.7043 8.86046 14.4982 8.68675 14.4982 8.47473V8.10929C14.4982 7.89727 14.7043 7.72356 14.9554 7.72356C15.0849 7.72356 15.1906 7.63329 15.1906 7.52273C15.1906 7.41217 15.0849 7.32191 14.9554 7.32191C14.7043 7.32191 14.4982 7.14592 14.4982 6.93163V6.56619C14.4982 6.35417 14.7043 6.18046 14.9554 6.18046C15.0849 6.18046 15.1906 6.09019 15.1906 5.97963C15.1906 5.86907 15.0849 5.77881 14.9554 5.77881C14.7043 5.77881 14.4982 5.60282 14.4982 5.38398V5.01802C14.4982 4.80599 14.7043 4.63228 14.9554 4.63228H15.706L17.1833 4.63211ZM2.64955 1.6946C2.64955 0.981559 3.32886 0.40184 4.16394 0.40184H13.9589C14.7942 0.40184 15.4733 0.981738 15.4733 1.6946V2.55197H2.64923L2.64955 1.6946ZM2.64955 2.95359H15.471V4.22834H14.9583C14.4456 4.22834 14.0306 4.58259 14.0306 5.01801V5.38345C14.0306 5.62031 14.1494 5.83249 14.3425 5.97911C14.1521 6.12343 14.0306 6.33335 14.0306 6.56792V6.93336C14.0306 7.16795 14.1494 7.38014 14.3398 7.52445C14.1494 7.66877 14.0306 7.8787 14.0306 8.11326V8.4787C14.0306 8.71101 14.1494 8.92321 14.3398 9.06751C14.1494 9.21183 14.0306 9.42403 14.0306 9.65861V10.0286C14.0306 10.464 14.4482 10.8183 14.9583 10.8183H15.471V12.1224L15.2146 12.3412C15.1671 12.3818 15.1247 12.4292 15.0958 12.4789C14.9796 12.4 14.8341 12.3571 14.6835 12.3571C14.5038 12.3571 14.3347 12.4157 14.2076 12.5263L13.7318 12.9346C13.6843 12.9752 13.6445 13.0226 13.6129 13.0723L11.1471 10.9717C10.8589 10.7257 10.3884 10.7257 10.0925 10.9717L9.72507 11.2853C9.5849 11.405 9.50826 11.5651 9.50826 11.7344C9.50826 11.9058 9.5849 12.0638 9.72507 12.1834L12.9654 14.9517C12.8332 15.0081 12.7221 15.0961 12.627 15.1954L2.64949 15.1956V14.9453C2.66527 14.9384 2.67859 14.9295 2.69437 14.9227C2.71015 14.9136 2.72614 14.9069 2.74192 14.8979C2.8079 14.8618 2.87409 14.819 2.93496 14.767L5.11801 12.9034C5.17621 12.8538 5.22642 12.802 5.26863 12.7455C5.28441 12.7252 5.29241 12.7049 5.30573 12.6846C5.33216 12.6463 5.3586 12.6101 5.37704 12.5695C5.39282 12.5357 5.40348 12.4995 5.41413 12.4635C5.42212 12.4364 5.43524 12.4093 5.44323 12.3823C5.47233 12.2515 5.47233 12.1161 5.44323 11.9852C5.4379 11.9649 5.43012 11.9492 5.42479 11.9289C5.41167 11.8837 5.39835 11.8409 5.37725 11.798C5.3588 11.762 5.33503 11.7281 5.31372 11.6943C5.29794 11.6694 5.28729 11.6446 5.26884 11.622C5.22663 11.5657 5.17642 11.5138 5.11822 11.4641L4.69792 11.1007C4.23007 10.7059 3.47411 10.7082 3.01156 11.1007L2.64946 11.4098L2.64955 2.95359ZM2.32966 14.6205C2.07063 14.7017 1.77719 14.6499 1.57899 14.4806L1.15869 14.1218C1.02119 14.0044 0.944547 13.8487 0.944547 13.6841C0.944547 13.5216 1.02119 13.3682 1.15869 13.251L3.34175 11.3851C3.55057 11.2068 3.86246 11.1617 4.12147 11.2497C4.20878 11.2791 4.29054 11.3242 4.3594 11.3828L4.7797 11.7462C4.84835 11.8048 4.90122 11.8748 4.93565 11.947C4.93565 11.9493 4.93831 11.9515 4.93831 11.9538C4.97008 12.0238 4.98852 12.0981 4.98852 12.1749V12.1818V12.1863C4.98852 12.2608 4.97008 12.3375 4.93831 12.4074C4.93831 12.4097 4.93565 12.412 4.93565 12.4143C4.90122 12.4888 4.84835 12.5565 4.7797 12.6174L2.59664 14.4809C2.52266 14.5483 2.43806 14.5934 2.32966 14.6205ZM13.9592 17.7497H4.16159C3.32631 17.7497 2.6472 17.1698 2.6472 16.457V15.5996H12.3976C12.3845 15.6582 12.3685 15.717 12.3685 15.7756V16.2584C12.3685 16.7638 12.8521 17.1766 13.4468 17.1766H15.2098C14.9376 17.5354 14.4724 17.7497 13.9595 17.7497L13.9592 17.7497ZM19.0206 18.8915L17.3952 17.504C17.3503 17.4657 17.2894 17.4454 17.2286 17.4454C17.2101 17.4454 17.189 17.4476 17.1677 17.4522C16.7105 17.5537 16.2162 17.441 15.8806 17.1545L15.5158 16.8385C15.4709 16.8002 15.4101 16.7776 15.3467 16.7776H13.4465C13.1108 16.7776 12.8386 16.5474 12.8386 16.2632V15.7804C12.8386 15.6856 12.8704 15.5886 12.9311 15.5073C13.0395 15.3584 13.2219 15.2682 13.4227 15.2659C13.5178 15.2636 13.6024 15.2139 13.6368 15.1396C13.6712 15.0651 13.6526 14.9793 13.584 14.923L10.0555 11.9017C10.0053 11.8589 9.97623 11.8003 9.97623 11.7369C9.97623 11.6738 10.0053 11.6152 10.0555 11.5721L10.4203 11.2608C10.5314 11.1682 10.7031 11.1682 10.8115 11.2585L13.7294 13.7448C13.8219 13.8216 13.97 13.8237 14.0624 13.7448C14.1073 13.7065 14.1311 13.6546 14.1311 13.6026C14.1311 13.5507 14.1073 13.4989 14.0624 13.4604C14.0253 13.4287 14.0042 13.3859 14.0042 13.3407C14.0042 13.2956 14.0253 13.2528 14.0624 13.2211L14.5383 12.8128C14.5754 12.7811 14.6256 12.7631 14.6809 12.7631C14.7338 12.7631 14.784 12.7811 14.8235 12.8128L15.2067 13.1399C15.2094 13.1422 15.2147 13.1467 15.2174 13.149C15.3098 13.2258 15.458 13.2258 15.5504 13.1467C15.6404 13.0678 15.6404 12.9414 15.5504 12.8625L15.5451 12.8579C15.5133 12.8285 15.4949 12.7902 15.4949 12.7496C15.4949 12.7045 15.516 12.6616 15.5531 12.63L16.034 12.2194C16.1107 12.154 16.2349 12.154 16.3142 12.2194L16.9644 12.7745C17.0568 12.8534 17.205 12.8534 17.2974 12.7745C17.3423 12.7362 17.3661 12.6842 17.3661 12.6323C17.3661 12.5803 17.3423 12.5285 17.2974 12.49C17.2816 12.4766 17.2657 12.4584 17.2579 12.4426C17.2234 12.3772 17.2394 12.3004 17.2974 12.2532L17.7811 11.8449C17.8419 11.7929 17.9263 11.7795 18.011 11.8132C18.0163 11.8155 18.0294 11.82 18.0585 11.8449L20.0857 13.5754C20.4424 13.8799 20.5666 14.3199 20.4133 14.7283C20.3869 14.8006 20.408 14.8795 20.4715 14.9314L22.0732 16.2942L19.0206 18.8915Z" fill="#FFEEEE"/>
</svg>
