<svg width="39" height="42" viewBox="0 0 39 42" fill="none" xmlns="http://www.w3.org/2000/svg">
<path d="M38 0.0660055L29.5 5.50266e-06C29.4519 -0.000258715 29.4043 0.00899459 29.3599 0.0272316C29.3154 0.0454686 29.275 0.0723284 29.241 0.106261C29.2069 0.140194 29.18 0.180529 29.1616 0.224938C29.1433 0.269347 29.1339 0.316952 29.134 0.365006V13.7C29.1345 14.2091 29.3025 14.7038 29.612 15.108C31.0257 16.9486 31.7946 19.2032 31.8 21.524C31.8 21.768 31.792 22.004 31.777 22.224L31.45 27.124H29.674V21.741C29.6739 21.1023 29.4991 20.4758 29.1684 19.9293C28.8377 19.3829 28.3638 18.9374 27.798 18.641L26.768 18.105C26.4229 17.9256 26.1338 17.6548 25.9323 17.3221C25.7307 16.9895 25.6244 16.6079 25.625 16.219V13.738C25.625 13.4336 25.5042 13.1417 25.2892 12.9262C25.0741 12.7108 24.7824 12.5895 24.478 12.589H19.649C19.3444 12.5895 19.0525 12.7108 18.8371 12.9261C18.6218 13.1415 18.5005 13.4334 18.5 13.738V16.22C18.5006 16.6089 18.3943 16.9905 18.1927 17.3232C17.9912 17.6558 17.7021 17.9266 17.357 18.106L16.505 18.552C16.475 18.448 16.4417 18.344 16.405 18.24C16.0757 17.2335 15.5886 16.2857 14.962 15.432L13.012 12.774C12.2867 11.789 11.8966 10.5972 11.899 9.37401V4.21701C11.8961 3.97836 11.9447 3.7419 12.0415 3.52376C12.1383 3.30563 12.2811 3.11094 12.46 2.95301C12.49 2.92701 12.52 2.89801 12.549 2.87201C12.7652 2.66662 12.9138 2.40025 12.9749 2.10835C13.036 1.81645 13.0067 1.51287 12.891 1.23801C12.7818 0.966811 12.5976 0.732329 12.36 0.562005C12.1033 0.378808 11.7954 0.281183 11.48 0.283006H5.422C5.10629 0.280972 4.79799 0.378607 4.541 0.562005C4.30346 0.73241 4.1193 0.966866 4.01 1.23801C3.894 1.51282 3.86459 1.81648 3.9257 2.10844C3.98681 2.40041 4.13553 2.66678 4.352 2.87201C4.38 2.90001 4.411 2.92701 4.441 2.95301C4.61951 3.11117 4.76184 3.30594 4.8583 3.52406C4.95477 3.74218 5.0031 3.97853 5 4.21701V9.37501C5.00271 10.5983 4.61256 11.7901 3.887 12.775L1.94 15.432C0.678908 17.15 -0.000755413 19.2258 6.30071e-07 21.357V38.809C0.00237549 39.6546 0.339332 40.4648 0.937246 41.0628C1.53516 41.6607 2.34543 41.9976 3.191 42H13.713C14.3072 42.0007 14.8897 41.8344 15.394 41.52C15.8073 41.8326 16.3117 42.0012 16.83 42H32.614C32.7828 42.0002 32.951 41.978 33.114 41.934C33.5631 42.0283 34.0275 42.0213 34.4735 41.9133C34.9195 41.8054 35.3358 41.5993 35.692 41.31C36.0482 41.0207 36.3354 40.6557 36.5326 40.2413C36.7299 39.827 36.8321 39.3739 36.832 38.915V38.89L35.722 22.226C35.551 19.6696 36.3195 17.1388 37.883 15.109C38.1938 14.7054 38.3626 14.2104 38.363 13.701V0.431006C38.3631 0.383204 38.3538 0.335845 38.3357 0.291632C38.3175 0.24742 38.2908 0.207219 38.2571 0.173325C38.2234 0.139432 38.1833 0.11251 38.1392 0.0940957C38.0951 0.0756817 38.0478 0.0661367 38 0.0660055ZM29.305 27.866C29.3136 27.8668 29.3224 27.8668 29.331 27.866H31.761C31.778 27.8677 31.795 27.8677 31.812 27.866H32.666C32.7579 27.866 32.849 27.8841 32.9339 27.9193C33.0188 27.9545 33.096 28.006 33.161 28.071C33.226 28.136 33.2775 28.2132 33.3127 28.2981C33.3479 28.3831 33.366 28.4741 33.366 28.566V30.794H23.787V28.565C23.787 28.3794 23.8608 28.2013 23.992 28.07C24.1233 27.9388 24.3013 27.865 24.487 27.865H29.278H29.304M2.523 15.865L4.476 13.2C4.88121 12.6479 5.19613 12.0349 5.409 11.384C5.62171 10.7342 5.73006 10.0548 5.73 9.37101V4.21301C5.73259 3.87006 5.66121 3.53059 5.52074 3.21772C5.38027 2.90486 5.17401 2.62595 4.916 2.40001C4.896 2.38301 4.877 2.36401 4.857 2.34701C4.7453 2.2424 4.66879 2.10574 4.63798 1.95584C4.60718 1.80594 4.62361 1.65018 4.685 1.51001C4.74285 1.3619 4.84427 1.23482 4.97585 1.14555C5.10743 1.05628 5.263 1.00902 5.422 1.01001H11.483C11.642 1.00916 11.7975 1.05648 11.929 1.14573C12.0606 1.23498 12.162 1.36198 12.22 1.51001C12.2811 1.65023 12.2974 1.80592 12.2666 1.95575C12.2358 2.10558 12.1594 2.24223 12.048 2.34701C12.029 2.36601 12.009 2.38301 11.989 2.40001C11.7308 2.62621 11.5244 2.90545 11.3839 3.21867C11.2435 3.5319 11.1722 3.87174 11.175 4.21501V9.37101C11.1751 10.7484 11.6148 12.0898 12.43 13.2L14.38 15.858C15.0997 16.8359 15.6196 17.946 15.91 19.125H1C1.28766 17.9456 1.80671 16.8352 2.527 15.858M0.727001 21.352C0.726367 20.8495 0.766835 20.3479 0.848001 19.852H16.055C16.1354 20.348 16.1758 20.8496 16.176 21.352V25.769L14.076 23.7C14.0076 23.6322 13.9153 23.5942 13.819 23.5942C13.7227 23.5942 13.6304 23.6322 13.562 23.7L11.134 26.126L8.71 23.706C8.64143 23.6379 8.54868 23.5996 8.452 23.5996C8.35532 23.5996 8.26257 23.6379 8.194 23.706L5.764 26.132L3.3 23.7C3.23151 23.6325 3.13919 23.5946 3.043 23.5946C2.94681 23.5946 2.85449 23.6325 2.786 23.7L0.727001 25.765V21.352ZM0.727001 26.793L3.049 24.473L5.509 26.903C5.57749 26.9705 5.66981 27.0084 5.766 27.0084C5.86219 27.0084 5.95451 26.9705 6.023 26.903L8.451 24.477L10.879 26.9C10.9476 26.9682 11.0403 27.0064 11.137 27.0064C11.2337 27.0064 11.3264 26.9682 11.395 26.9L13.825 24.472L16.175 26.792V29.292H0.727001V26.793ZM13.715 41.273H3.191C2.5382 41.2725 1.91229 41.0129 1.45069 40.5513C0.989089 40.0897 0.72953 39.4638 0.729001 38.811V30.024H16.176V38.811C16.1755 39.4636 15.9161 40.0894 15.4547 40.551C14.9933 41.0125 14.3676 41.2722 13.715 41.273ZM16.83 41.273C16.5342 41.2738 16.2436 41.1947 15.989 41.044C16.5755 40.4487 16.9041 39.6466 16.904 38.811V21.353C16.904 20.7082 16.842 20.0649 16.719 19.432C16.7179 19.424 16.7179 19.416 16.719 19.408C16.71 19.362 16.7 19.319 16.691 19.274L17.698 18.749C18.1611 18.508 18.5492 18.1444 18.8197 17.6979C19.0902 17.2514 19.2328 16.7391 19.232 16.217V13.738C19.232 13.6268 19.2761 13.5201 19.3547 13.4414C19.4332 13.3626 19.5398 13.3183 19.651 13.318H24.48C24.535 13.3181 24.5895 13.3291 24.6403 13.3503C24.6911 13.3715 24.7372 13.4024 24.776 13.4414C24.8148 13.4804 24.8456 13.5267 24.8665 13.5776C24.8874 13.6285 24.8981 13.683 24.898 13.738V16.22C24.897 16.7421 25.0396 17.2544 25.3102 17.701C25.5807 18.1475 25.9688 18.5111 26.432 18.752L27.462 19.289C27.9104 19.5235 28.2859 19.8765 28.5477 20.3095C28.8095 20.7425 28.9476 21.239 28.947 21.745V27.134H24.492C24.1124 27.1345 23.7484 27.2856 23.48 27.554C23.2116 27.8225 23.0605 28.1864 23.06 28.566V31.158C23.0599 31.206 23.0692 31.2535 23.0875 31.2978C23.1058 31.3422 23.1327 31.3825 23.1666 31.4164C23.2005 31.4503 23.2408 31.4772 23.2852 31.4955C23.3295 31.5138 23.377 31.5231 23.425 31.523H24.145C24.038 31.623 23.925 31.744 23.813 31.873C23.035 32.7546 22.6064 33.8903 22.608 35.066V40.066C22.6069 40.5058 22.757 40.9326 23.033 41.275L16.83 41.273ZM33.83 40.064C33.8291 40.3179 33.7485 40.5651 33.5996 40.7707C33.4507 40.9763 33.2409 41.13 33 41.21L32.976 41.217C32.8606 41.2537 32.7401 41.2723 32.619 41.272H24.542C24.2214 41.2717 23.9141 41.1443 23.6874 40.9176C23.4607 40.6909 23.3333 40.3836 23.333 40.063V35.063C23.3273 34.0712 23.6872 33.1121 24.344 32.369C24.6231 32.0425 24.947 31.757 25.306 31.521H31.856C32.2152 31.7567 32.5391 32.0422 32.818 32.369C33.4742 33.1125 33.8341 34.0714 33.829 35.063L33.83 40.064ZM37.63 13.706C37.6327 14.0541 37.5182 14.3929 37.305 14.668C35.6319 16.8386 34.8093 19.5456 34.992 22.28L36.1 38.93C36.0967 39.482 35.9 40.0153 35.5441 40.4372C35.1882 40.8591 34.6955 41.1428 34.152 41.239C34.4112 40.9021 34.5518 40.4891 34.552 40.064V35.064C34.5527 33.8884 34.1242 32.753 33.347 31.871C33.235 31.743 33.122 31.625 33.014 31.521H33.734C33.782 31.5213 33.8296 31.512 33.874 31.4938C33.9184 31.4755 33.9587 31.4486 33.9927 31.4147C34.0266 31.3807 34.0535 31.3404 34.0718 31.296C34.09 31.2516 34.0993 31.204 34.099 31.156V28.566C34.0985 28.1864 33.9474 27.8225 33.679 27.554C33.4106 27.2856 33.0466 27.1345 32.667 27.134H32.176L32.499 22.28C32.516 22.042 32.523 21.789 32.523 21.528C32.5224 19.0461 31.7007 16.6341 30.186 14.668C29.9728 14.392 29.8577 14.0528 29.859 13.704V12.188H37.632L37.63 13.706ZM37.63 11.458H29.861V9.33401H37.634L37.63 11.458ZM37.63 8.60701H35.93V3.67701C35.9326 3.62753 35.9251 3.57805 35.9079 3.53157C35.8908 3.48509 35.8644 3.44259 35.8303 3.40666C35.7962 3.37072 35.7551 3.3421 35.7096 3.32255C35.6641 3.30299 35.615 3.29291 35.5655 3.29291C35.516 3.29291 35.4669 3.30299 35.4214 3.32255C35.3759 3.3421 35.3348 3.37072 35.3007 3.40666C35.2666 3.44259 35.2402 3.48509 35.2231 3.53157C35.2059 3.57805 35.1984 3.62753 35.201 3.67701V8.60601H34.025V6.70601C34.0276 6.65653 34.0201 6.60705 34.0029 6.56057C33.9858 6.51409 33.9594 6.47159 33.9253 6.43566C33.8912 6.39972 33.8501 6.3711 33.8046 6.35155C33.7591 6.33199 33.71 6.32191 33.6605 6.32191C33.611 6.32191 33.5619 6.33199 33.5164 6.35155C33.4709 6.3711 33.4298 6.39972 33.3957 6.43566C33.3616 6.47159 33.3352 6.51409 33.3181 6.56057C33.3009 6.60705 33.2934 6.65653 33.296 6.70601V8.60601H32.287V3.67701C32.2896 3.62753 32.2821 3.57805 32.2649 3.53157C32.2478 3.48509 32.2214 3.44259 32.1873 3.40666C32.1532 3.37072 32.1121 3.3421 32.0666 3.32255C32.0211 3.30299 31.972 3.29291 31.9225 3.29291C31.873 3.29291 31.8239 3.30299 31.7784 3.32255C31.7329 3.3421 31.6918 3.37072 31.6577 3.40666C31.6236 3.44259 31.5972 3.48509 31.5801 3.53157C31.5629 3.57805 31.5554 3.62753 31.558 3.67701V8.60601H29.858V0.733005L37.634 0.794006L37.63 8.60701Z" fill="#003a4b"/>
<path d="M9.81414 33.5337H7.08614C6.99277 33.5386 6.90483 33.5791 6.84047 33.6469C6.77611 33.7148 6.74023 33.8047 6.74023 33.8982C6.74023 33.9917 6.77611 34.0816 6.84047 34.1494C6.90483 34.2173 6.99277 34.2578 7.08614 34.2627H9.81414C9.86361 34.2653 9.91309 34.2578 9.95957 34.2406C10.006 34.2235 10.0485 34.1971 10.0845 34.163C10.1204 34.1289 10.149 34.0878 10.1686 34.0423C10.1881 33.9968 10.1982 33.9477 10.1982 33.8982C10.1982 33.8487 10.1881 33.7996 10.1686 33.7541C10.149 33.7086 10.1204 33.6675 10.0845 33.6334C10.0485 33.5993 10.006 33.5729 9.95957 33.5558C9.91309 33.5386 9.86361 33.5311 9.81414 33.5337Z" fill="#003a4b"/>
<path d="M14.9938 33.5332H12.2658C12.1725 33.5381 12.0845 33.5786 12.0202 33.6464C11.9558 33.7143 11.9199 33.8042 11.9199 33.8977C11.9199 33.9912 11.9558 34.0811 12.0202 34.1489C12.0845 34.2168 12.1725 34.2573 12.2658 34.2622H14.9938C15.0872 34.2573 15.1751 34.2168 15.2395 34.1489C15.3038 34.0811 15.3397 33.9912 15.3397 33.8977C15.3397 33.8042 15.3038 33.7143 15.2395 33.6464C15.1751 33.5786 15.0872 33.5381 14.9938 33.5332Z" fill="#003a4b"/>
<path d="M4.6364 33.5332H1.9084C1.81503 33.5381 1.7271 33.5786 1.66274 33.6464C1.59838 33.7143 1.5625 33.8042 1.5625 33.8977C1.5625 33.9912 1.59838 34.0811 1.66274 34.1489C1.7271 34.2168 1.81503 34.2573 1.9084 34.2622H4.6364C4.72977 34.2573 4.8177 34.2168 4.88206 34.1489C4.94642 34.0811 4.9823 33.9912 4.9823 33.8977C4.9823 33.8042 4.94642 33.7143 4.88206 33.6464C4.8177 33.5786 4.72977 33.5381 4.6364 33.5332Z" fill="#003a4b"/>
</svg>
