<svg width="42" height="38" viewBox="0 0 42 38" fill="none" xmlns="http://www.w3.org/2000/svg">
<path d="M16.124 37.336C15.6545 37.3355 15.2043 37.1487 14.8723 36.8167C14.5403 36.4847 14.3535 36.0345 14.353 35.565V28.811C11.741 28.711 11.474 28.595 11.474 27.998V16.935C11.474 16.279 11.785 16.208 15.174 16.091C17.201 16.021 19.894 15.982 22.758 15.982C25.622 15.982 28.315 16.021 30.342 16.091C33.727 16.208 34.042 16.279 34.042 16.935V28C34.042 28.624 33.701 28.712 31.164 28.813V35.567C31.1635 36.0365 30.9767 36.4867 30.6447 36.8187C30.3127 37.1507 29.8625 37.3375 29.393 37.338L16.124 37.336ZM15.524 35.565C15.524 35.7241 15.5872 35.8767 15.6997 35.9893C15.8123 36.1018 15.9649 36.165 16.124 36.165H29.386C29.5447 36.1637 29.6966 36.1001 29.8088 35.9878C29.9211 35.8756 29.9847 35.7237 29.986 35.565V28.853C28.01 28.915 25.421 28.953 22.75 28.953C20.05 28.953 17.5 28.918 15.515 28.853L15.524 35.565ZM12.641 17.4V27.533C13.741 27.648 17.188 27.783 22.754 27.783C25.691 27.783 28.533 27.741 30.554 27.667C31.854 27.619 32.524 27.567 32.87 27.532V17.4C31.77 17.285 28.323 17.149 22.756 17.149C17.189 17.149 13.738 17.285 12.641 17.4ZM1.311 31.421C0.963026 31.4202 0.629575 31.2814 0.3838 31.0351C0.138026 30.7887 -9.06919e-07 30.455 0 30.107L0 26.28C0 25.739 0.108 25.497 0.436 25.303C0.310207 25.2261 0.204868 25.1199 0.128954 24.9935C0.0530399 24.8671 0.00879946 24.7242 0 24.577C0 24.57 0 24.564 0 24.556V8.8C0 8.049 0.9 7.609 3.108 7.28C5.22566 6.9971 7.36059 6.86344 9.497 6.88C11.6334 6.86345 13.7683 6.99712 15.886 7.28C18.093 7.609 18.994 8.049 18.994 8.797V14.478C18.994 14.6328 18.9325 14.7812 18.8231 14.8906C18.7137 15 18.5653 15.0615 18.4105 15.0615C18.2557 15.0615 18.1073 15 17.9979 14.8906C17.8885 14.7812 17.827 14.6328 17.827 14.478V9.89C17.1934 10.0869 16.544 10.2288 15.886 10.314C13.7683 10.5969 11.6334 10.7306 9.497 10.714C7.36059 10.7306 5.22566 10.5969 3.108 10.314C2.45 10.2288 1.80059 10.0869 1.167 9.89V24.39C1.184 24.4 1.2 24.41 1.226 24.423C1.59227 24.5779 1.97511 24.6903 2.367 24.758C3.86877 25.0333 5.38899 25.1961 6.915 25.245C7.742 25.283 8.615 25.303 9.498 25.303C9.65275 25.303 9.80117 25.3645 9.9106 25.4739C10.02 25.5833 10.0815 25.7317 10.0815 25.8865C10.0815 26.0413 10.02 26.1897 9.9106 26.2991C9.80117 26.4085 9.65275 26.47 9.498 26.47C7.02925 26.5107 4.56213 26.3198 2.129 25.9L2.029 25.877C2.00299 25.8946 1.97556 25.91 1.947 25.923C1.674 26.043 1.465 26.123 1.304 26.187C2.104 26.532 4.855 27.026 9.497 27.026C9.65175 27.026 9.80017 27.0875 9.9096 27.1969C10.019 27.3063 10.0805 27.4547 10.0805 27.6095C10.0805 27.7643 10.019 27.9127 9.9096 28.0221C9.80017 28.1315 9.65175 28.193 9.497 28.193C7.36026 28.2094 5.22501 28.0757 3.107 27.793C2.449 27.7078 1.79958 27.566 1.166 27.369V30.102C1.16574 30.1212 1.16925 30.1402 1.17634 30.158C1.18344 30.1758 1.19397 30.1921 1.20734 30.2058C1.22072 30.2196 1.23666 30.2305 1.25428 30.2381C1.27189 30.2457 1.29083 30.2497 1.31 30.25H12.222C12.3768 30.25 12.5252 30.3115 12.6346 30.4209C12.744 30.5303 12.8055 30.6787 12.8055 30.8335C12.8055 30.9883 12.744 31.1367 12.6346 31.2461C12.5252 31.3555 12.3768 31.417 12.222 31.417L1.311 31.421ZM1.558 8.8C4.16185 9.39139 6.83164 9.64116 9.5 9.543C12.1664 9.6406 14.8341 9.39084 17.436 8.8C14.8344 8.20718 12.1666 7.9554 9.5 8.051C6.83138 7.95484 4.16159 8.20663 1.558 8.8ZM34.989 17.6C34.8342 17.6 34.6858 17.5385 34.5764 17.4291C34.467 17.3197 34.4055 17.1713 34.4055 17.0165C34.4055 16.8617 34.467 16.7133 34.5764 16.6039C34.6858 16.4945 34.8342 16.433 34.989 16.433H37.476L37.485 14.45H24.1V15.16C24.1 15.3148 24.0385 15.4632 23.9291 15.5726C23.8197 15.682 23.6713 15.7435 23.5165 15.7435C23.3617 15.7435 23.2133 15.682 23.1039 15.5726C22.9945 15.4632 22.933 15.3148 22.933 15.16V14.45H20.869C20.529 14.4497 20.2029 14.3146 19.9624 14.0743C19.7219 13.8339 19.5865 13.508 19.586 13.168V1.283C19.5863 0.942809 19.7215 0.616626 19.9621 0.376074C20.2026 0.135523 20.5288 0.000264844 20.869 0L40.717 0C41.0572 0.000264844 41.3834 0.135523 41.6239 0.376074C41.8645 0.616626 41.9997 0.942809 42 1.283V13.164C41.9995 13.504 41.8641 13.8299 41.6236 14.0703C41.383 14.3106 41.057 14.4457 40.717 14.446H38.654V16.413C38.6547 16.5683 38.6247 16.7222 38.5658 16.8659C38.507 17.0097 38.4204 17.1404 38.311 17.2506C38.2016 17.3609 38.0715 17.4485 37.9283 17.5084C37.785 17.5683 37.6313 17.5995 37.476 17.6H34.989ZM38.655 13.283H40.718C40.7488 13.283 40.7783 13.2708 40.8 13.249C40.8218 13.2273 40.834 13.1978 40.834 13.167V1.283C40.834 1.25223 40.8218 1.22273 40.8 1.20098C40.7783 1.17922 40.7488 1.167 40.718 1.167H20.869C20.8382 1.167 20.8087 1.17922 20.787 1.20098C20.7652 1.22273 20.753 1.25223 20.753 1.283V13.164C20.753 13.1948 20.7652 13.2243 20.787 13.246C20.8087 13.2678 20.8382 13.28 20.869 13.28H38.654L38.655 13.283Z" fill="#003a4b"/>
</svg>
