<svg width="42" height="41" viewBox="0 0 42 41" fill="none" xmlns="http://www.w3.org/2000/svg">
<path d="M6.19702 38.9072V34.6833C5.88712 34.5433 5.62419 34.3167 5.43988 34.0309C5.25557 33.7451 5.15772 33.4122 5.15802 33.0722V29.1312C1.76802 28.9032 0.033 28.3312 0 27.4212V27.3972V15.5423C0.012 15.0173 0.539015 14.6323 1.65302 14.3333V9.14321C1.65091 9.12695 1.65091 9.11053 1.65302 9.09426V8.98623C1.65345 8.89557 1.68103 8.80706 1.73218 8.7322C1.78333 8.65735 1.8557 8.59953 1.94 8.56618C2.969 7.68018 6.58503 7.61123 7.67303 7.61123C8.76103 7.61123 12.373 7.68018 13.406 8.56618C13.4902 8.59965 13.5626 8.65749 13.6137 8.73232C13.6648 8.80715 13.6924 8.8956 13.693 8.98623V9.09817C13.6939 9.10614 13.6939 9.11424 13.693 9.12222V14.3343C14.811 14.6343 15.337 15.0222 15.345 15.5512V20.2982C15.3448 20.4191 15.2966 20.5349 15.2112 20.6204C15.1257 20.7058 15.0099 20.7539 14.889 20.7542C14.7682 20.7539 14.6523 20.7058 14.5668 20.6204C14.4814 20.5349 14.4332 20.4191 14.433 20.2982V16.5382C12.547 17.3622 8.17703 17.3872 7.67303 17.3872C7.16903 17.3872 2.796 17.3622 0.908997 16.5382V27.3462C1.157 27.6362 3.40903 28.3092 7.67303 28.3092C8.63503 28.3092 9.56798 28.2732 10.446 28.2042C10.505 28.1983 10.5647 28.2041 10.6215 28.2212C10.6783 28.2384 10.7312 28.2666 10.777 28.3042C10.8231 28.3433 10.8609 28.3913 10.8882 28.4452C10.9155 28.4991 10.9318 28.5579 10.936 28.6182C10.9411 28.6779 10.9343 28.7379 10.9159 28.7949C10.8975 28.8519 10.868 28.9048 10.829 28.9502C10.7901 28.9957 10.7426 29.0331 10.6893 29.0602C10.6359 29.0873 10.5777 29.1036 10.518 29.1082C10.418 29.1162 10.318 29.1233 10.212 29.1303H10.185V33.0692C10.1853 33.4093 10.0874 33.7422 9.90314 34.028C9.71883 34.3138 9.4559 34.5402 9.146 34.6802V38.9042C9.14547 39.2958 8.98971 39.6711 8.71283 39.948C8.43595 40.2249 8.06057 40.3807 7.66901 40.3812C7.27867 40.3799 6.90473 40.2241 6.62891 39.9479C6.35308 39.6717 6.19781 39.2976 6.19702 38.9072ZM7.10901 38.9072C7.10874 39.0565 7.16761 39.1997 7.27277 39.3056C7.37792 39.4115 7.52075 39.4714 7.66998 39.4722C7.74418 39.4722 7.81768 39.4576 7.88623 39.4292C7.95478 39.4008 8.01705 39.3592 8.06952 39.3068C8.12198 39.2543 8.16362 39.192 8.19202 39.1234C8.22041 39.0549 8.23499 38.9814 8.23499 38.9072V34.8432H7.10901V38.9072ZM6.07001 33.0722C6.07002 33.2143 6.10541 33.3541 6.17297 33.4791C6.24054 33.6041 6.33817 33.7104 6.45703 33.7882L7 33.9323H8.34198L8.88501 33.7882C9.004 33.7104 9.10176 33.6043 9.16949 33.4793C9.23723 33.3543 9.2728 33.2143 9.27301 33.0722V29.2212H6.073L6.07001 33.0722ZM0.97699 15.5722C1.46099 15.9132 3.749 16.4782 7.677 16.4782C11.605 16.4782 13.884 15.9122 14.37 15.5722C14.0807 15.4075 13.7687 15.2865 13.444 15.2132C12.47 16.1352 8.794 16.2072 7.677 16.2072C6.56 16.2072 2.87703 16.1342 1.90503 15.2132C1.57964 15.2843 1.26656 15.4033 0.976013 15.5662L0.97699 15.5722ZM2.56403 14.6022C2.84303 14.8092 4.41001 15.2962 7.67401 15.2962C10.938 15.2962 12.502 14.8102 12.779 14.6022V10.0313C11.1144 10.4764 9.39458 10.6808 7.672 10.6382C5.94907 10.6811 4.22893 10.4767 2.56403 10.0313V14.6022ZM2.72803 9.12624C4.3302 9.60457 6.00192 9.80743 7.672 9.72622C9.34207 9.80737 11.0138 9.60452 12.616 9.12624C11.0138 8.64841 9.34206 8.44556 7.672 8.52627C6.00189 8.44383 4.32987 8.64498 2.72699 9.12124L2.72803 9.12624ZM11.372 34.6372V34.6192L11.38 22.7392C11.374 22.7392 11.372 22.7202 11.372 22.7042C11.372 21.2092 17.246 21.0932 19.046 21.0932C20.846 21.0932 26.719 21.2092 26.719 22.7042C26.7203 22.7192 26.7203 22.7342 26.719 22.7492C26.7211 22.7607 26.7211 22.7726 26.719 22.7842V34.6492C26.692 36.3492 20.328 36.4412 19.052 36.4412C17.776 36.4412 11.422 36.3492 11.371 34.6322L11.372 34.6372ZM12.283 34.5662C12.533 34.8572 14.783 35.5292 19.048 35.5292C23.334 35.5292 25.572 34.8552 25.807 34.5642V23.5802C24.052 24.2612 20.207 24.3152 19.045 24.3152C17.883 24.3152 14.038 24.2612 12.283 23.5802V34.5662ZM12.472 22.7042C14.6156 23.2653 16.8313 23.5012 19.045 23.4042C21.2587 23.5012 23.4744 23.2653 25.618 22.7042C23.4744 22.1429 21.2587 21.9069 19.045 22.0042C16.8313 21.9045 14.6152 22.1381 12.471 22.6972L12.472 22.7042ZM41.32 36.1792L27.488 30.0542C27.3712 30.0023 27.2797 29.9062 27.2336 29.787C27.1875 29.6678 27.1905 29.5352 27.242 29.4182C27.2939 29.3014 27.3899 29.21 27.5092 29.1638C27.6284 29.1177 27.761 29.1208 27.878 29.1723L41.711 35.2973C41.8278 35.3492 41.9193 35.4451 41.9654 35.5644C42.0115 35.6836 42.0085 35.8163 41.957 35.9333C41.9192 36.0189 41.8573 36.0917 41.7788 36.1428C41.7003 36.194 41.6087 36.2212 41.515 36.2212C41.4471 36.2194 41.3804 36.2034 41.319 36.1742L41.32 36.1792ZM20.989 28.2932C20.9895 27.7265 21.2148 27.1832 21.6154 26.7824C22.016 26.3816 22.5593 26.156 23.126 26.1552C23.6929 26.1557 24.2364 26.3812 24.6372 26.782C25.038 27.1828 25.2635 27.7264 25.264 28.2932C25.2632 28.8599 25.0377 29.4031 24.6368 29.8037C24.236 30.2044 23.6927 30.4297 23.126 30.4302C22.8449 30.4301 22.5665 30.3745 22.3068 30.2667C22.0472 30.1589 21.8113 30.0009 21.6127 29.8019C21.4142 29.6029 21.2568 29.3666 21.1496 29.1067C21.0424 28.8468 20.9875 28.5684 20.988 28.2873L20.989 28.2932ZM21.9 28.2932C21.9006 28.6181 22.0299 28.9296 22.2598 29.1592C22.4896 29.3888 22.8011 29.5179 23.126 29.5182C23.4509 29.5179 23.7624 29.3888 23.9922 29.1592C24.2221 28.9296 24.3515 28.6181 24.352 28.2932C24.3517 27.9682 24.2225 27.6564 23.9926 27.4265C23.7628 27.1967 23.4511 27.0674 23.126 27.0672C22.8015 27.0666 22.4899 27.1947 22.2596 27.4234C22.0292 27.652 21.8989 27.9627 21.897 28.2873L21.9 28.2932ZM27.2 28.5082C27.1947 28.4451 27.2019 28.3817 27.2213 28.3214C27.2407 28.2612 27.2719 28.2054 27.313 28.1572C27.354 28.1089 27.4042 28.069 27.4606 28.0402C27.5171 28.0113 27.5788 27.994 27.642 27.9892L35.992 27.3242C36.1195 27.3143 36.2458 27.3553 36.3431 27.4384C36.4404 27.5214 36.5008 27.6397 36.511 27.7672C36.5163 27.8303 36.5091 27.8937 36.4897 27.954C36.4703 28.0143 36.4391 28.0701 36.398 28.1182C36.357 28.1667 36.3069 28.2066 36.2504 28.2356C36.194 28.2646 36.1323 28.2822 36.069 28.2873L27.719 28.9512H27.681C27.5587 28.9515 27.4407 28.9055 27.3509 28.8224C27.2611 28.7393 27.2061 28.6252 27.197 28.5032L27.2 28.5082ZM27.34 27.6082C27.25 27.5175 27.1995 27.395 27.1995 27.2672C27.1995 27.1395 27.25 27.0168 27.34 26.9262L38.04 16.2262C38.0847 16.1813 38.1378 16.1457 38.1964 16.1214C38.2549 16.097 38.3176 16.0845 38.381 16.0845C38.4444 16.0845 38.5072 16.097 38.5657 16.1214C38.6242 16.1457 38.6773 16.1813 38.722 16.2262C38.7668 16.271 38.8023 16.3241 38.8266 16.3826C38.8509 16.4411 38.8633 16.5038 38.8633 16.5672C38.8633 16.6305 38.8509 16.6932 38.8266 16.7517C38.8023 16.8102 38.7668 16.8635 38.722 16.9082L28.022 27.6082C27.9773 27.653 27.9241 27.6886 27.8656 27.7128C27.8071 27.737 27.7444 27.7493 27.681 27.7492C27.6178 27.7491 27.5552 27.7366 27.4968 27.7122C27.4385 27.6878 27.3855 27.6521 27.341 27.6072L27.34 27.6082ZM28.302 19.7212L14.895 13.4602C14.7793 13.406 14.6897 13.308 14.6461 13.1879C14.6024 13.0677 14.6081 12.9352 14.662 12.8192C14.6887 12.7618 14.7266 12.7103 14.7733 12.6675C14.82 12.6247 14.8747 12.5915 14.9342 12.5698C14.9937 12.5482 15.057 12.5385 15.1202 12.5413C15.1835 12.5441 15.2457 12.5594 15.303 12.5862L28.71 18.8472C28.8258 18.9014 28.9153 18.9994 28.959 19.1195C29.0027 19.2397 28.9969 19.3723 28.943 19.4882C28.904 19.5712 28.8422 19.6414 28.7648 19.6906C28.6875 19.7398 28.5977 19.7661 28.506 19.7663C28.4358 19.7658 28.3666 19.7501 28.303 19.7202L28.302 19.7212ZM9.27203 12.6352C9.2723 12.2071 9.4424 11.7967 9.745 11.4939C10.0476 11.1911 10.4579 11.0207 10.886 11.0202C11.3141 11.0207 11.7244 11.1911 12.027 11.4939C12.3296 11.7967 12.4997 12.2071 12.5 12.6352C12.4997 13.0632 12.3296 13.4737 12.027 13.7765C11.7244 14.0793 11.3141 14.2497 10.886 14.2503C10.4577 14.2495 10.0474 14.0787 9.74493 13.7755C9.4425 13.4723 9.27274 13.0614 9.27301 12.6332L9.27203 12.6352ZM10.183 12.6352C10.183 12.7271 10.2011 12.8182 10.2363 12.9031C10.2714 12.988 10.3231 13.0651 10.3881 13.1301C10.4531 13.1952 10.5302 13.2467 10.6151 13.2819C10.7 13.3171 10.7911 13.3352 10.883 13.3352C10.9749 13.3352 11.066 13.3171 11.1509 13.2819C11.2358 13.2467 11.313 13.1952 11.378 13.1301C11.443 13.0651 11.4945 12.988 11.5297 12.9031C11.5649 12.8182 11.583 12.7271 11.583 12.6352C11.583 12.4495 11.5093 12.2716 11.378 12.1403C11.2467 12.009 11.0686 11.9352 10.883 11.9352C10.698 11.9357 10.5208 12.0095 10.39 12.1403C10.2592 12.2711 10.1855 12.4482 10.185 12.6332L10.183 12.6352ZM14.639 11.9352C14.6352 11.8719 14.6439 11.8086 14.6647 11.7487C14.6854 11.6888 14.7178 11.6335 14.76 11.5862C14.802 11.5388 14.8529 11.5002 14.9099 11.4726C14.9669 11.4449 15.0288 11.4288 15.092 11.4252L23.27 10.9392C23.3326 10.9339 23.3957 10.9413 23.4553 10.9611C23.515 10.9809 23.57 11.0126 23.617 11.0542C23.6654 11.0968 23.7048 11.1486 23.7328 11.2067C23.7609 11.2648 23.7769 11.3278 23.78 11.3922C23.784 11.4555 23.7753 11.519 23.7545 11.5789C23.7337 11.6388 23.7013 11.694 23.659 11.7412C23.6171 11.7887 23.5662 11.8274 23.5092 11.855C23.4522 11.8826 23.3903 11.8987 23.327 11.9022L15.119 12.3892C14.9962 12.3881 14.8784 12.3403 14.7896 12.2554C14.7007 12.1705 14.6476 12.055 14.641 11.9323L14.639 11.9352ZM14.796 11.0683C14.752 11.0227 14.7175 10.9687 14.6945 10.9097C14.6715 10.8506 14.6604 10.7876 14.662 10.7243C14.663 10.6609 14.6766 10.5983 14.702 10.5403C14.7274 10.4823 14.7641 10.4299 14.81 10.3863L25.481 0.134178C25.5261 0.089713 25.5798 0.0549217 25.6387 0.0318829C25.6977 0.0088442 25.7608 -0.00186989 25.824 0.000266737C25.8874 0.00141986 25.9498 0.0150271 26.0078 0.0404279C26.0658 0.0658286 26.1182 0.10247 26.162 0.148216C26.206 0.19384 26.2405 0.247736 26.2635 0.306785C26.2865 0.365834 26.2976 0.428858 26.296 0.49221C26.295 0.555554 26.2815 0.618015 26.256 0.676048C26.2306 0.734081 26.1939 0.786535 26.148 0.830223L15.477 11.0812C15.3875 11.168 15.2677 11.2165 15.143 11.2162C15.0781 11.2158 15.014 11.2023 14.9545 11.1763C14.895 11.1503 14.8414 11.1125 14.797 11.0652L14.796 11.0683Z" fill="#003a4b"/>
</svg>
